<svg width="32" height="32" viewBox="0 0 32 32" fill="none" xmlns="http://www.w3.org/2000/svg">
<path fill-rule="evenodd" clip-rule="evenodd" d="M23.5524 9.53076C23.7445 9.06059 23.8185 8.52951 23.7026 7.94229C23.4478 6.64551 22.5151 5.29807 21.2015 4.28836C19.8683 3.26364 18.0719 2.52856 15.9891 2.52856C13.9127 2.52856 12.063 3.25545 10.7004 4.27569C9.36772 5.27348 8.37907 6.65129 8.2545 8.03513L8.25433 8.03707C8.20639 8.58295 8.30938 9.07566 8.50773 9.51423C7.52121 9.81202 6.65639 10.4608 6.01419 11.3408C5.27226 12.3575 4.85762 13.6369 4.81476 14.9547C4.81444 14.9645 4.81429 14.9742 4.81429 14.984V26.2857C4.81429 26.7828 5.21723 27.1857 5.71429 27.1857H8.24308V27.2993C8.23925 27.5717 8.28599 27.843 8.38155 28.0985C8.47819 28.357 8.62344 28.5957 8.81099 28.7999C8.99858 29.0042 9.22502 29.1703 9.47865 29.2864C9.73243 29.4025 10.0072 29.4657 10.2869 29.4713L10.3046 29.4714H21.6954L21.7131 29.4713C21.9928 29.4657 22.2676 29.4025 22.5214 29.2864C22.775 29.1703 23.0014 29.0042 23.189 28.7999C23.3766 28.5957 23.5218 28.357 23.6185 28.0985C23.714 27.843 23.7608 27.5717 23.7569 27.2993V27.1857H26.2857C26.7828 27.1857 27.1857 26.7828 27.1857 26.2857V15.0068C27.1857 14.9988 27.1856 14.9909 27.1854 14.983C27.1504 13.658 26.7389 12.3689 25.9956 11.3453C25.3655 10.4777 24.5188 9.83446 23.5524 9.53076ZM10.0473 8.19551C10.0887 7.73988 10.3515 7.16071 10.8478 6.58039C10.9244 6.85961 11.0194 7.16111 11.1372 7.48046C11.4978 8.4581 12.0701 9.59721 12.9744 10.7715C12.9185 10.7494 12.8627 10.727 12.807 10.7041C11.9752 10.3626 11.221 9.95228 10.7045 9.4861C10.1948 9.02599 10.0117 8.60569 10.0473 8.19551ZM12.826 6.85753C12.5953 6.23215 12.4715 5.69649 12.4051 5.30108C13.3988 4.71807 14.6335 4.32856 15.9891 4.32856C17.3813 4.32856 18.6072 4.74222 19.5856 5.35497C19.5172 5.74459 19.3944 6.26012 19.174 6.85753C18.706 8.12635 17.7932 9.77874 16 11.3893C14.2068 9.77874 13.294 8.12635 12.826 6.85753ZM18.9839 10.8254C19.0911 10.7855 19.1984 10.7441 19.3051 10.7013C20.1596 10.3587 20.9138 9.95059 21.4053 9.49445C21.8818 9.05237 22.0119 8.67147 21.9366 8.2903C21.844 7.81885 21.5703 7.25444 21.1193 6.69758C21.0488 6.9434 20.9643 7.20531 20.8628 7.48046C20.4966 8.47305 19.9124 9.6321 18.9839 10.8254ZM16.1417 13.4584C16.1415 13.4584 16.1406 13.4586 15.991 12.5826L16.1406 13.4586C16.038 13.4761 15.9326 13.4756 15.83 13.4573C15.8303 13.4573 15.8305 13.4573 15.986 12.5888L15.83 13.4573L15.8277 13.4568L15.8222 13.4558L15.8038 13.4524L15.7377 13.4398C15.681 13.4288 15.5998 13.4126 15.4975 13.391C15.2932 13.3477 15.004 13.2828 14.6588 13.1947C14.313 13.1064 13.9071 12.994 13.4714 12.8558V16C13.4714 16.4971 13.0685 16.9 12.5714 16.9C12.0744 16.9 11.6714 16.4971 11.6714 16V12.5714C11.6714 12.4424 11.6986 12.3196 11.7475 12.2087C10.9498 11.8539 10.1371 11.3988 9.49842 10.8223C9.38984 10.7243 9.28431 10.6208 9.18356 10.5118L9.30231 11.1715C8.63413 11.2918 7.97692 11.7047 7.4682 12.4018C6.96029 13.0979 6.64894 14.0152 6.61429 14.9992V25.3857H8.24308V16C8.24308 15.5029 8.64602 15.1 9.14308 15.1C9.64013 15.1 10.0431 15.5029 10.0431 16V27.3064L10.0429 27.3229C10.042 27.3735 10.0506 27.4229 10.0675 27.4681C10.0844 27.5133 10.1087 27.5518 10.1368 27.5825C10.165 27.6132 10.1963 27.6352 10.2277 27.6496C10.2572 27.6631 10.2873 27.6701 10.3169 27.6714H11.6714V23.0159C11.6714 22.6656 11.8746 22.3472 12.1923 22.1996C12.4475 22.0811 12.7025 21.8695 12.9182 21.5574C13.1341 21.2451 13.2961 20.8524 13.3758 20.4113C13.4533 19.983 13.8262 19.6714 14.2615 19.6714H17.7593C18.1947 19.6714 18.5677 19.9831 18.645 20.4116C18.7242 20.8504 18.8843 21.2421 19.098 21.5551C19.3116 21.8679 19.5646 22.0824 19.8192 22.2051C20.1306 22.3551 20.3286 22.6702 20.3286 23.0159V27.6714H21.6831C21.7127 27.6701 21.7428 27.6631 21.7723 27.6496C21.8037 27.6352 21.835 27.6132 21.8632 27.5825C21.8913 27.5518 21.9156 27.5133 21.9325 27.4681C21.9494 27.4229 21.958 27.3735 21.9571 27.3229L21.9569 27.3064V16C21.9569 15.5029 22.3599 15.1 22.8569 15.1C23.354 15.1 23.7569 15.5029 23.7569 16V25.3857H25.3857V15.0191C25.3574 14.0289 25.0481 13.1038 24.5391 12.403C24.0299 11.7018 23.3708 11.2891 22.7022 11.1723L22.7926 10.6551C22.7394 10.7096 22.6851 10.7625 22.6297 10.8139C21.976 11.4205 21.1119 11.8903 20.2695 12.2502C20.3077 12.3499 20.3286 12.4582 20.3286 12.5714V16C20.3286 16.4971 19.9256 16.9 19.4286 16.9C18.9315 16.9 18.5286 16.4971 18.5286 16V12.8766C18.1013 13.0064 17.7021 13.1126 17.3592 13.1967C17.0008 13.2846 16.6998 13.3495 16.487 13.3926C16.3805 13.4141 16.2959 13.4303 16.2369 13.4412C16.2074 13.4467 16.1843 13.4509 16.1681 13.4538L16.149 13.4571L16.1417 13.4584ZM18.5286 23.5225V27.6714H13.4714V23.5294C13.8297 23.2759 14.1419 22.9526 14.3988 22.5811C14.6323 22.2434 14.8184 21.8685 14.9549 21.4714H17.0654C17.1999 21.864 17.3827 22.235 17.6116 22.5702C17.8654 22.9419 18.1741 23.2663 18.5286 23.5225Z" fill="#1B1B21"/>
</svg>
