<svg width="32" height="32" viewBox="0 0 32 32" fill="none" xmlns="http://www.w3.org/2000/svg">
<path d="M19.1283 4.8409C18.6865 4.8409 18.3283 5.19907 18.3283 5.6409C18.3283 6.08272 18.6865 6.4409 19.1283 6.4409H23.6387C24.0806 6.4409 24.4387 6.08272 24.4387 5.6409C24.4387 5.19907 24.0806 4.8409 23.6387 4.8409H19.1283Z" fill="#1B1B21"/>
<path d="M23.181 10.0828C22.8993 10.0828 22.6239 10.161 22.3897 10.3074C22.1555 10.4538 21.9729 10.6619 21.8651 10.9054C21.7573 11.1489 21.7291 11.4168 21.7841 11.6753C21.839 11.9338 21.9747 12.1713 22.1739 12.3576C22.3731 12.544 22.6268 12.6709 22.9031 12.7223C23.1794 12.7737 23.4658 12.7473 23.7261 12.6465C23.9863 12.5456 24.2088 12.3748 24.3653 12.1557C24.5218 11.9366 24.6053 11.6789 24.6053 11.4154C24.6053 11.0619 24.4553 10.723 24.1882 10.4731C23.9211 10.2232 23.5588 10.0828 23.181 10.0828Z" fill="#1B1B21"/>
<path d="M16.0077 14.7827L15.998 14.7827C14.9119 14.7854 13.86 15.1904 13.0759 15.9259C12.2898 16.6632 11.8361 17.6755 11.8361 18.7445L11.8361 18.7467C11.8382 19.5994 12.1267 20.4235 12.651 21.1028C12.9547 21.4963 13.5199 21.5691 13.9134 21.2654C14.3069 20.9617 14.3797 20.3965 14.076 20.003C13.7878 19.6297 13.6375 19.189 13.6361 18.7434C13.6364 18.1914 13.87 17.649 14.3074 17.2387C14.746 16.8273 15.3526 16.5855 15.9976 16.5827C16.2818 16.5856 16.5628 16.6321 16.8291 16.7199C17.3012 16.8755 17.81 16.619 17.9656 16.1469C18.1212 15.6748 17.8647 15.166 17.3926 15.0104C16.9465 14.8634 16.4787 14.7866 16.0077 14.7827Z" fill="#1B1B21"/>
<path fill-rule="evenodd" clip-rule="evenodd" d="M8.74954 18.7444C8.74954 14.9107 12.0529 11.9034 15.9997 11.9034C19.9464 11.9034 23.2498 14.9107 23.2498 18.7444C23.2498 22.5781 19.9464 25.5854 15.9997 25.5854C12.0529 25.5854 8.74954 22.5781 8.74954 18.7444ZM15.9997 13.7034C12.9323 13.7034 10.5495 16.0159 10.5495 18.7444C10.5495 21.473 12.9323 23.7854 15.9997 23.7854C19.0671 23.7854 21.4498 21.473 21.4498 18.7444C21.4498 16.0159 19.0671 13.7034 15.9997 13.7034Z" fill="#1B1B21"/>
<path fill-rule="evenodd" clip-rule="evenodd" d="M7.35221 2.25824C5.8918 2.25824 4.60397 3.37983 4.60397 4.8874V27.1126C4.60397 28.6202 5.8918 29.7418 7.35221 29.7418H24.6477C26.1081 29.7418 27.3959 28.6202 27.3959 27.1126V4.8874C27.3959 3.37983 26.1081 2.25824 24.6477 2.25824H7.35221ZM6.40397 4.8874C6.40397 4.48499 6.77112 4.05824 7.35221 4.05824H24.6477C25.2288 4.05824 25.5959 4.48499 25.5959 4.8874V7.37431H6.40397V4.8874ZM6.40397 9.17431V27.1126C6.40397 27.515 6.77112 27.9418 7.35221 27.9418H24.6477C25.2288 27.9418 25.5959 27.515 25.5959 27.1126V9.17431H6.40397Z" fill="#1B1B21"/>
</svg>
