<svg width="32" height="32" viewBox="0 0 32 32" fill="none" xmlns="http://www.w3.org/2000/svg">
<path fill-rule="evenodd" clip-rule="evenodd" d="M8.73472 13.0977V22.2641H6.93472V13.0977H8.73472Z" fill="#1B1B21"/>
<path fill-rule="evenodd" clip-rule="evenodd" d="M9.81094 22.2641V13.0977H11.6109V22.2641H9.81094Z" fill="#1B1B21"/>
<path fill-rule="evenodd" clip-rule="evenodd" d="M15.4481 13.0977V22.2641H13.6481V13.0977H15.4481Z" fill="#1B1B21"/>
<path fill-rule="evenodd" clip-rule="evenodd" d="M16.5241 22.2641V13.0977H18.3241V22.2641H16.5241Z" fill="#1B1B21"/>
<path fill-rule="evenodd" clip-rule="evenodd" d="M22.1522 13.0977V22.2641H20.3522V13.0977H22.1522Z" fill="#1B1B21"/>
<path fill-rule="evenodd" clip-rule="evenodd" d="M23.2277 22.2641V13.0977H25.0277V22.2641H23.2277Z" fill="#1B1B21"/>
<path fill-rule="evenodd" clip-rule="evenodd" d="M5.18729 22.2744C5.18729 21.7774 5.59024 21.3744 6.08729 21.3744H25.8843C26.3743 21.3744 26.7742 21.7664 26.7841 22.2562L26.8033 23.2077H28.011C28.5081 23.2077 28.911 23.6106 28.911 24.1077V26.8576C28.911 27.3547 28.5081 27.7576 28.011 27.7576H4.03458C3.53752 27.7576 3.13458 27.3547 3.13458 26.8576V24.1077C3.13458 23.6106 3.53752 23.2077 4.03458 23.2077H5.18729V22.2744ZM6.98729 23.1744V24.1077C6.98729 24.6048 6.58435 25.0077 6.08729 25.0077H4.93458V25.9576H27.111V25.0077H25.9213C25.4313 25.0077 25.0314 24.6157 25.0215 24.1259L25.0023 23.1744H6.98729Z" fill="#1B1B21"/>
<path fill-rule="evenodd" clip-rule="evenodd" d="M14.4746 4.62032C14.9562 4.38331 15.4862 4.26015 16.0231 4.26015C16.5601 4.26015 17.0901 4.38331 17.5717 4.62032L17.5743 4.62158L29.3637 10.4698C29.7381 10.6555 29.9354 11.0745 29.84 11.4814C29.7446 11.8883 29.3817 12.176 28.9637 12.176H26.72V13.2101C26.72 13.7072 26.3171 14.1101 25.82 14.1101H6.18938C5.69233 14.1101 5.28938 13.7072 5.28938 13.2101V12.176H3.03638C2.61818 12.176 2.25509 11.888 2.15997 11.4807C2.06485 11.0735 2.26276 10.6544 2.63768 10.4692L14.4746 4.62032ZM15.2693 6.23535L6.64232 10.4981C6.90971 10.6542 7.08938 10.9441 7.08938 11.276V12.3101H24.92V11.276C24.92 10.9435 25.1003 10.6531 25.3686 10.4973L16.777 6.23535L16.7758 6.2348C16.5422 6.12005 16.2846 6.06015 16.0231 6.06015C15.7615 6.06015 15.5031 6.12042 15.2693 6.23535Z" fill="#1B1B21"/>
</svg>
