<svg width="32" height="32" viewBox="0 0 32 32" fill="none" xmlns="http://www.w3.org/2000/svg">
<path d="M9.28106 2.52856C9.25686 2.52856 9.23267 2.52954 9.20854 2.53149C7.9396 2.63406 6.77741 3.27268 5.96461 4.28125C5.15903 5.28087 4.75492 6.56887 4.82135 7.86968V12.2256H6.62135V7.84566C6.62135 7.8289 6.62088 7.81214 6.61995 7.7954C6.57066 6.91416 6.84482 6.05761 7.36614 5.41073C7.87792 4.77568 8.5814 4.39771 9.32002 4.32856H22.68C23.4186 4.39771 24.1221 4.77568 24.6339 5.41073C25.1552 6.0576 25.4293 6.91415 25.3801 7.7954C25.3791 7.81262 25.3786 7.82987 25.3787 7.84712L25.3857 12.2271L27.1857 12.2242L27.1787 7.86891C27.2449 6.56838 26.8408 5.28069 26.0354 4.28125C25.2226 3.27268 24.0604 2.63406 22.7915 2.53149C22.7673 2.52954 22.7431 2.52856 22.7189 2.52856H9.28106Z" fill="#1B1B21"/>
<path fill-rule="evenodd" clip-rule="evenodd" d="M3.42857 19.6714C2.93152 19.6714 2.52857 20.0744 2.52857 20.5714V26.2857C2.52857 26.7828 2.93152 27.1857 3.42857 27.1857H5.95714V28.5714C5.95714 29.0685 6.36008 29.4714 6.85714 29.4714C7.35419 29.4714 7.75714 29.0685 7.75714 28.5714V27.1857H25.3857V28.5714C25.3857 29.0685 25.7887 29.4714 26.2857 29.4714C26.7828 29.4714 27.1857 29.0685 27.1857 28.5714V27.1857H28.5714C29.0685 27.1857 29.4714 26.7828 29.4714 26.2857V20.5714C29.4714 20.0744 29.0685 19.6714 28.5714 19.6714H3.42857ZM26.2895 25.3857H27.6714V21.4714H4.32857V25.3857H6.85339L6.85714 25.3857L6.86088 25.3857H26.282L26.2857 25.3857L26.2895 25.3857Z" fill="#1B1B21"/>
<path d="M5.86401 10.5286C5.45618 10.5286 5.09932 10.8028 4.99434 11.1969L2.5589 20.3398C2.48694 20.6099 2.5446 20.8982 2.71496 21.1198C2.88531 21.3415 3.149 21.4714 3.42857 21.4714H28.5714C28.851 21.4714 29.1147 21.3415 29.285 21.1198C29.4554 20.8982 29.5131 20.6099 29.4411 20.3398L27.0057 11.1969C26.9007 10.8028 26.5438 10.5286 26.136 10.5286H24.5C24.0029 10.5286 23.6 10.9315 23.6 11.4286C23.6 11.9256 24.0029 12.3286 24.5 12.3286H25.4443L27.4003 19.6714H4.59969L6.55566 12.3286H7.76506C8.26212 12.3286 8.66506 11.9256 8.66506 11.4286C8.66506 10.9315 8.26212 10.5286 7.76506 10.5286H5.86401Z" fill="#1B1B21"/>
<path d="M16 10.5286C15.5029 10.5286 15.1 10.9315 15.1 11.4286C15.1 11.9256 15.5029 12.3286 16 12.3286H17C17.4971 12.3286 17.9 11.9256 17.9 11.4286C17.9 10.9315 17.4971 10.5286 17 10.5286H16Z" fill="#1B1B21"/>
<path fill-rule="evenodd" clip-rule="evenodd" d="M14.6853 9.73002C12.5492 9.27094 10.3172 9.27094 8.18105 9.73002L7.80973 9.81033C7.39558 9.89992 7.10001 10.2663 7.10001 10.69V14.4529C7.10001 14.8766 7.39561 15.243 7.80979 15.3326L8.18105 15.4128C10.3172 15.8719 12.5492 15.8719 14.6853 15.4129L15.052 15.3315C15.464 15.2402 15.7571 14.8749 15.7571 14.4529V10.69C15.7571 10.268 15.464 9.90274 15.0521 9.81135L14.6912 9.73127L14.6853 9.73002ZM8.90001 13.7217V11.4212C10.5659 11.1078 12.2911 11.1072 13.9571 11.4194V13.7234C12.2911 14.0356 10.5659 14.0351 8.90001 13.7217Z" fill="#1B1B21"/>
<path fill-rule="evenodd" clip-rule="evenodd" d="M23.8853 9.73002C21.7492 9.27094 19.5172 9.27094 17.3811 9.73002L17.0097 9.81033C16.5956 9.89992 16.3 10.2663 16.3 10.69V14.4529C16.3 14.8766 16.5956 15.243 17.0098 15.3326L17.3811 15.4128C19.5172 15.8719 21.7492 15.8719 23.8853 15.4129L24.252 15.3315C24.664 15.2402 24.9571 14.8749 24.9571 14.4529V10.69C24.9571 10.268 24.664 9.90274 24.2521 9.81135L23.8912 9.73127L23.8853 9.73002ZM18.1 13.7217V11.4212C19.7659 11.1078 21.4911 11.1072 23.1571 11.4194V13.7234C21.4911 14.0356 19.7659 14.0351 18.1 13.7217Z" fill="#1B1B21"/>
</svg>
