<svg width="32" height="32" viewBox="0 0 32 32" fill="none" xmlns="http://www.w3.org/2000/svg">
<path fill-rule="evenodd" clip-rule="evenodd" d="M22.0073 7.1034C22.4688 7.0395 22.7912 6.61351 22.7273 6.15192C22.6634 5.69033 22.2374 5.36794 21.7759 5.43184L18.0981 5.94096C17.8306 5.97799 17.597 6.14085 17.4697 6.37904C17.3424 6.61723 17.3368 6.90196 17.4547 7.14496L19.5915 11.5506C19.3907 11.5193 19.163 11.4895 18.9119 11.4657C17.9139 11.3707 16.5325 11.3667 15.0027 11.7352C14.0978 11.9532 13.1525 12.299 12.212 12.822L10.7642 10.6297H11.6265C12.0925 10.6297 12.4702 10.252 12.4702 9.78599C12.4702 9.32 12.0925 8.94224 11.6265 8.94224H9.20706C9.19903 8.94212 9.191 8.94212 9.18297 8.94224H7.97588C7.50989 8.94224 7.13213 9.32 7.13213 9.78599C7.13213 10.252 7.50989 10.6297 7.97588 10.6297H8.74187L10.8033 13.7511C10.1812 14.2313 9.57157 14.803 8.98815 15.4813C8.31929 15.2121 7.59931 15.0699 6.8645 15.0699C5.73317 15.0699 4.62769 15.4075 3.68786 16.0393C2.7481 16.671 2.01641 17.5685 1.58455 18.6175C1.1527 19.6664 1.03978 20.8203 1.25987 21.9336C1.47996 23.0468 2.02335 24.0701 2.8221 24.8738C3.62092 25.6775 4.63931 26.2254 5.74874 26.4474C6.8582 26.6694 8.00814 26.5555 9.05293 26.1201C10.0977 25.6847 10.9898 24.9477 11.617 24.0032C12.0827 23.3019 12.387 22.5096 12.5129 21.6834L16.8455 21.7031C17.1042 21.7043 17.3491 21.5868 17.51 21.3843C17.6708 21.1819 17.7299 20.9171 17.6706 20.6656L17.6693 20.6598C17.6677 20.6527 17.665 20.6403 17.6614 20.6229C17.6542 20.588 17.6435 20.5332 17.631 20.4607C17.606 20.3154 17.5742 20.1001 17.5497 19.8323C17.5005 19.2939 17.4824 18.5578 17.6015 17.7586C17.83 16.2253 18.5483 14.5102 20.5047 13.4333L21.8166 16.1381C20.9452 16.7631 20.2654 17.622 19.8556 18.6175C19.4238 19.6664 19.3108 20.8203 19.5309 21.9336C19.751 23.0468 20.2944 24.0701 21.0932 24.8738C21.892 25.6775 22.9103 26.2254 24.0198 26.4474C25.1292 26.6694 26.2792 26.5555 27.324 26.1201C28.3687 25.6847 29.2608 24.9477 29.8881 24.0032C30.5153 23.0587 30.8498 21.9489 30.8498 20.814C30.8498 19.2922 30.249 17.8317 29.1779 16.7541C28.1067 15.6763 26.6527 15.0699 25.1355 15.0699C24.5144 15.0699 23.9011 15.1716 23.3186 15.368L19.4797 7.45329L22.0073 7.1034ZM22.5686 17.6885L24.0691 20.7822C24.1669 20.9837 24.3408 21.1381 24.5525 21.2113L25.7091 21.6114C26.1495 21.7637 26.63 21.5301 26.7823 21.0897C26.9347 20.6494 26.7011 20.1689 26.2607 20.0166L25.4348 19.7309L24.0635 16.9038C24.4109 16.8071 24.7714 16.7574 25.1355 16.7574C26.2018 16.7574 27.2255 17.1835 27.9811 17.9437C28.7368 18.7041 29.1623 19.7364 29.1623 20.814C29.1623 21.6174 28.9255 22.4024 28.4823 23.0696C28.0392 23.7368 27.41 24.256 26.6748 24.5624C25.9397 24.8688 25.131 24.9488 24.3509 24.7927C23.5708 24.6366 22.8535 24.2511 22.29 23.6842C21.7265 23.1172 21.3421 22.3942 21.1864 21.6063C21.0306 20.8184 21.1106 20.0018 21.416 19.2599C21.6683 18.647 22.065 18.1083 22.5686 17.6885ZM11.7362 15.1637C11.3067 15.504 10.8815 15.8985 10.4672 16.3554C10.6199 16.48 10.7667 16.613 10.9069 16.7541C11.7842 17.6368 12.3459 18.7763 12.5205 19.9959L14.9348 20.0069L11.7362 15.1637ZM15.846 18.3245L13.1451 14.2349C13.9173 13.8192 14.6807 13.5486 15.3979 13.3758C16.4055 13.133 17.3426 13.079 18.114 13.1047C16.7303 14.4314 16.145 16.0833 15.9324 17.5098C15.8906 17.7902 15.8629 18.063 15.846 18.3245ZM8.13424 19.976L10.8069 19.9881C10.6481 19.2189 10.2696 18.5067 9.71001 17.9437C9.61839 17.8515 9.52282 17.7643 9.42371 17.6821C8.96794 18.3478 8.53466 19.1081 8.13424 19.976ZM6.86061 21.6577L10.7993 21.6756C10.6924 22.171 10.4938 22.6442 10.2113 23.0696C9.76821 23.7368 9.13898 24.256 8.40378 24.5624C7.66864 24.8688 6.86 24.9488 6.0799 24.7927C5.29977 24.6366 4.58246 24.2511 4.01898 23.6842C3.45544 23.1172 3.07109 22.3942 2.91532 21.6063C2.75956 20.8184 2.83955 20.0018 3.14498 19.2599C3.45038 18.5181 3.96722 17.8849 4.62934 17.4397C5.29141 16.9946 6.06924 16.7574 6.8645 16.7574C7.22304 16.7574 7.57677 16.8056 7.9171 16.8984C7.24144 17.9141 6.61948 19.1082 6.0775 20.5096C5.97737 20.7685 6.01099 21.0601 6.16741 21.2894C6.32383 21.5187 6.58303 21.6564 6.86061 21.6577Z" fill="#1B1B21"/>
</svg>
