<svg width="32" height="32" viewBox="0 0 32 32" fill="none" xmlns="http://www.w3.org/2000/svg">
<path d="M23.851 14.8457C23.354 14.8457 22.951 15.2486 22.951 15.7457C22.951 16.2427 23.354 16.6457 23.851 16.6457H25.5879C26.085 16.6457 26.4879 16.2427 26.4879 15.7457C26.4879 15.2486 26.085 14.8457 25.5879 14.8457H23.851Z" fill="#1B1B21"/>
<path d="M5.55202 15.7457C5.55202 15.2486 5.95496 14.8457 6.45202 14.8457H8.18891C8.68597 14.8457 9.08891 15.2486 9.08891 15.7457C9.08891 16.2427 8.68597 16.6457 8.18891 16.6457H6.45202C5.95496 16.6457 5.55202 16.2427 5.55202 15.7457Z" fill="#1B1B21"/>
<path d="M9.29361 12.606C9.29361 12.109 9.69655 11.706 10.1936 11.706H22.1038C22.6008 11.706 23.0038 12.109 23.0038 12.606C23.0038 13.1031 22.6008 13.506 22.1038 13.506H10.1936C9.69655 13.506 9.29361 13.1031 9.29361 12.606Z" fill="#1B1B21"/>
<path fill-rule="evenodd" clip-rule="evenodd" d="M11.4344 5.35823H20.457L20.4672 5.35846C21.9051 5.39117 23.2854 5.93124 24.3567 6.88352C25.4249 7.833 26.1154 9.12989 26.3002 10.5409C26.347 10.8305 26.4547 11.1081 26.6171 11.3557C26.6391 11.3892 26.662 11.4221 26.6858 11.4543C26.7598 11.4347 26.8374 11.4242 26.9175 11.4242H28.9025C29.3996 11.4242 29.8025 11.8272 29.8025 12.3242C29.8025 12.8213 29.3996 13.2242 28.9025 13.2242H28.6103C28.8022 13.4696 28.9735 13.7314 29.1219 14.0074C29.5609 14.8235 29.7851 15.7361 29.7732 16.6613V19.7815C29.7817 20.0992 29.7254 20.4151 29.6083 20.7102C29.4891 21.0107 29.3094 21.2834 29.0806 21.5118C28.8519 21.7401 28.5792 21.9193 28.2795 22.0391C28.1998 22.0711 28.1185 22.0986 28.036 22.1217V24.0876C28.036 24.7663 27.7634 25.4148 27.2819 25.8922C26.8008 26.3691 26.1505 26.6366 25.4738 26.6406L25.4686 25.7406V26.6406C24.7892 26.6406 24.1351 26.3747 23.6508 25.8975C23.1661 25.4198 22.8913 24.769 22.8913 24.0876V22.211H22.7655L22.773 22.2417H9.6178L9.62516 22.211H9.06947V24.0876C9.06947 24.769 8.79467 25.4197 8.3099 25.8975C7.82554 26.3748 7.17135 26.6406 6.49206 26.6406H6.48681C5.81006 26.6366 5.15989 26.369 4.67886 25.8921C4.19738 25.4148 3.9247 24.7663 3.92471 24.0876V22.1414C3.48022 22.0308 3.07265 21.7947 2.75491 21.4553C2.33102 21.0026 2.10114 20.4019 2.11817 19.7811V16.6614C2.1062 15.7362 2.33046 14.8235 2.7694 14.0074C2.91781 13.7314 3.08911 13.4696 3.28099 13.2242H3.13672C2.63966 13.2242 2.23672 12.8213 2.23672 12.3242C2.23672 11.8272 2.63966 11.4242 3.13672 11.4242H5.12174C5.15608 11.4242 5.18997 11.4261 5.2233 11.4299C5.2408 11.4055 5.25778 11.3808 5.27423 11.3557C5.43662 11.1081 5.54432 10.8305 5.59116 10.5409C5.77598 9.12982 6.46662 7.83296 7.53473 6.88352C8.60603 5.93126 9.98621 5.39117 11.4241 5.35846L11.4344 5.35823ZM24.6913 22.211V24.0876C24.6913 24.283 24.7699 24.4731 24.9143 24.6154C25.0585 24.7575 25.2565 24.8399 25.4659 24.8406C25.6746 24.8387 25.8715 24.7558 26.0146 24.6138C26.158 24.4717 26.236 24.2823 26.236 24.0876V22.211H24.6913ZM5.72471 22.211H7.26947V24.0876C7.26947 24.283 7.19081 24.4731 7.04646 24.6154C6.90229 24.7575 6.70414 24.8399 6.49469 24.8406C6.28613 24.8387 6.08931 24.7558 5.9461 24.6138C5.80275 24.4717 5.7247 24.2823 5.72471 24.0876V22.211ZM27.3637 20.411H22.3271L21.7873 18.1944L21.7871 18.1933C21.6305 17.5541 21.2566 16.9901 20.7311 16.594C20.2096 16.2008 19.5695 15.996 18.9166 16.0109H13.4604C12.8076 15.996 12.1675 16.2008 11.6459 16.594C11.1205 16.9901 10.7465 17.5541 10.59 18.1933L10.0574 20.411H4.46251C4.30974 20.4001 4.1693 20.3324 4.06894 20.2252C3.96545 20.1146 3.91256 19.9711 3.91762 19.8264L3.91817 19.8107L3.91826 16.6553L3.91808 16.6426C3.90929 16.0224 4.05918 15.4094 4.35468 14.86C4.64985 14.3111 5.08115 13.8428 5.61012 13.4993C6.07704 13.1997 6.47574 12.8059 6.77946 12.3428C7.08373 11.8788 7.28556 11.356 7.37121 10.8085L7.37311 10.7964L7.37468 10.7842C7.5009 9.80252 7.98079 8.89535 8.73059 8.22886C9.47827 7.56425 10.4446 7.18351 11.4553 7.15823H20.436C21.4468 7.18351 22.4132 7.56427 23.1609 8.22886C23.9106 8.89531 24.3904 9.80247 24.5167 10.7842L25.4093 10.6694L24.5201 10.8085C24.6058 11.356 24.8076 11.8788 25.1119 12.3428C25.4156 12.8059 25.8143 13.1998 26.2812 13.4993C26.8102 13.8429 27.2415 14.3111 27.5367 14.86C27.8322 15.4094 27.9819 16.0224 27.9732 16.6426V19.795H28.8732L27.9737 19.8256C27.9762 19.9005 27.9633 19.9757 27.9352 20.0465C27.9071 20.1173 27.8643 20.1826 27.8089 20.2379C27.7534 20.2933 27.6861 20.3378 27.6109 20.3679C27.5357 20.398 27.4547 20.4128 27.3728 20.4112L27.3637 20.411ZM11.9086 20.411H20.4745L20.0387 18.6215C19.9817 18.3892 19.8447 18.1799 19.6476 18.0313C19.45 17.8824 19.2047 17.8036 18.9526 17.8106L18.9403 17.8109H13.4368L13.4244 17.8106C13.1724 17.8036 12.927 17.8824 12.7295 18.0313C12.5327 18.1797 12.3959 18.388 12.3387 18.6198L11.9086 20.411Z" fill="#1B1B21"/>
</svg>
