<svg width="32" height="32" viewBox="0 0 32 32" fill="none" xmlns="http://www.w3.org/2000/svg">
<path fill-rule="evenodd" clip-rule="evenodd" d="M20.4728 3.96521C20.5045 4.00006 20.5336 4.03759 20.5597 4.07757L21.8344 6.02578H23.2115C23.4468 6.02578 23.6727 6.11792 23.8409 6.28245L30.7126 13.0053C31.0506 13.336 31.0751 13.8718 30.7686 14.2319L26.907 18.7692C26.7434 18.9615 26.5064 19.0762 26.2541 19.0853C26.0017 19.0944 25.7572 18.997 25.5801 18.817L24.1115 17.3242V27.7849C24.1115 28.282 23.7086 28.6849 23.2115 28.6849H8.78869C8.29163 28.6849 7.88869 28.282 7.88869 27.7849V17.3242L6.42014 18.817C6.24305 18.997 5.99848 19.0944 5.74612 19.0853C5.49376 19.0762 5.25684 18.9615 5.09317 18.7692L1.23161 14.2319C0.925135 13.8718 0.949594 13.336 1.2876 13.0053L8.1593 6.28245C8.32748 6.11792 8.5534 6.02578 8.78869 6.02578H10.1648L11.4371 4.07812C11.4646 4.03593 11.4955 3.99648 11.5291 3.96002C11.6392 3.58735 11.984 3.3154 12.3924 3.3154H19.6081C20.0183 3.3154 20.3644 3.58988 20.4728 3.96521ZM13.9692 5.1154L15.9998 7.21629L18.0289 5.1154H13.9692ZM14.8488 11.9197L15.1046 11.5282V16.8795C15.1046 17.3765 15.5075 17.7795 16.0046 17.7795C16.5016 17.7795 16.9046 17.3765 16.9046 16.8795V11.5499L17.1446 11.9186C17.2941 12.1481 17.5399 12.2971 17.8125 12.3233C18.0852 12.3496 18.3549 12.2502 18.5454 12.0535L22.361 8.11225C22.4431 8.02751 22.5056 7.93 22.548 7.82578H22.8445L28.8536 13.7047L26.1736 16.8537L23.8531 14.4949C23.5969 14.2344 23.2086 14.1547 22.8705 14.2932C22.5324 14.4316 22.3115 14.7607 22.3115 15.1261V26.8849H9.68869V15.1261C9.68869 14.7607 9.46781 14.4316 9.1297 14.2932C8.79158 14.1547 8.40333 14.2344 8.1471 14.4949L5.8266 16.8537L3.14658 13.7047L9.15572 7.82578H9.45223C9.49455 7.92978 9.5569 8.02711 9.6387 8.11174L13.4482 12.053C13.6385 12.2498 13.9081 12.3493 14.1806 12.3234C14.4532 12.2975 14.6991 12.1489 14.8488 11.9197ZM17.1455 8.62114L18.0372 9.99061L20.5674 7.37705L19.6707 6.0065L17.1455 8.62114ZM11.4321 7.37716L12.3273 6.00672L14.8538 8.62062L13.9586 9.99105L11.4321 7.37716Z" fill="#1B1B21"/>
</svg>
