<svg width="32" height="32" viewBox="0 0 32 32" fill="none" xmlns="http://www.w3.org/2000/svg">
<path fill-rule="evenodd" clip-rule="evenodd" d="M12.6666 13.059C8.54337 14.5142 7.5 18.3377 7.5 20.059V28.059H24.5V20.059C24.5 18.2381 23.7008 16.7159 22.6172 15.5113C21.5337 14.307 20.2104 13.4739 19.2923 13.059H12.6666ZM24.5 28.059L24.501 28.0587L24.5 28.059ZM24.5 28.059L24.501 28.0587L24.5 28.059ZM12.0133 11.1687C12.2273 11.0934 12.4485 11.059 12.6623 11.059H19.3C19.5591 11.059 19.8311 11.1087 20.0924 11.2259C21.2244 11.7336 22.799 12.7231 24.1041 14.1737C25.4162 15.6323 26.5 17.6105 26.5 20.059V28.0604C26.5 29.1668 25.6027 30.059 24.5 30.059H7.5C6.39543 30.059 5.5 29.1636 5.5 28.059V20.059C5.5 17.8251 6.80312 13.0005 12.0133 11.1687Z" fill="#1B1B21"/>
<path fill-rule="evenodd" clip-rule="evenodd" d="M9.23442 18.7065C9.23442 18.2094 9.63736 17.8065 10.1344 17.8065H21.8567C22.3538 17.8065 22.7567 18.2094 22.7567 18.7065V24.6599C22.7567 25.157 22.3538 25.5599 21.8567 25.5599H10.1344C9.63736 25.5599 9.23442 25.157 9.23442 24.6599V18.7065ZM11.0344 19.6065V23.7599H20.9567V19.6065H11.0344Z" fill="#1B1B21"/>
<path fill-rule="evenodd" clip-rule="evenodd" d="M21.6326 2.27691C20.6874 1.44407 19.4759 0.988408 18.2225 1.00022H12.37C11.873 1.00022 11.47 1.40317 11.47 1.90022C11.47 2.39728 11.873 2.80022 12.37 2.80022H13.6888V7.03226H12.659C12.1619 7.03226 11.759 7.4352 11.759 7.93226V12.0438C11.759 12.5409 12.1619 12.9438 12.659 12.9438H19.332C19.829 12.9438 20.232 12.5409 20.232 12.0438V7.93226C20.232 7.4352 19.829 7.03226 19.332 7.03226H18.311V2.80026C19.0897 2.81012 19.8446 3.10054 20.4426 3.62746C21.0604 4.17176 21.4689 4.93217 21.5859 5.76963C21.6546 6.26191 22.1094 6.60525 22.6017 6.53651C23.094 6.46777 23.4373 6.01297 23.3686 5.52069C23.1931 4.26385 22.5784 3.1103 21.6326 2.27691ZM15.4888 2.9748V6.88385H16.511V2.9748H15.4888ZM13.559 8.83226V11.1438H18.432V8.83226H13.559Z" fill="#1B1B21"/>
</svg>
