<svg width="32" height="32" viewBox="0 0 32 32" fill="none" xmlns="http://www.w3.org/2000/svg">
<path d="M9.14286 20.8143C8.6458 20.8143 8.24286 21.2172 8.24286 21.7143C8.24286 22.2113 8.6458 22.6143 9.14286 22.6143H22.8571C23.3542 22.6143 23.7571 22.2113 23.7571 21.7143C23.7571 21.2172 23.3542 20.8143 22.8571 20.8143H9.14286Z" fill="#1B1B21"/>
<path fill-rule="evenodd" clip-rule="evenodd" d="M4.8143 6.61224C4.8143 5.58526 5.67058 4.81429 6.64937 4.81429H25.3507C26.3295 4.81429 27.1857 5.58526 27.1857 6.61224V17.3878C27.1857 17.788 27.0557 18.1494 26.8389 18.4414L29.4061 24.8062C29.5179 25.0836 29.4847 25.3984 29.3174 25.6464C29.1501 25.8943 28.8705 26.0429 28.5714 26.0429H3.42854C3.12925 26.0429 2.84953 25.8941 2.68225 25.6459C2.51496 25.3977 2.48199 25.0826 2.59428 24.8052L5.16685 18.4491C4.94669 18.1558 4.8143 17.7916 4.8143 17.3878V6.61224ZM6.6143 6.62412V17.3759C6.62011 17.3803 6.63116 17.3857 6.64937 17.3857H25.3507C25.3689 17.3857 25.3799 17.3803 25.3857 17.3759V6.62412C25.3799 6.61974 25.3689 6.61429 25.3507 6.61429H6.64937C6.63116 6.61429 6.62011 6.61974 6.6143 6.62412ZM6.81058 19.1857H25.1982L27.2379 24.2429H4.76373L6.81058 19.1857Z" fill="#1B1B21"/>
</svg>
