<svg width="32" height="32" viewBox="0 0 32 32" fill="none" xmlns="http://www.w3.org/2000/svg">
<path fill-rule="evenodd" clip-rule="evenodd" d="M16.9729 3.56157C17.3266 3.91072 17.3304 4.48056 16.9812 4.83433L12.7861 9.08504C10.8741 11.0223 10.9409 14.4595 13.1628 16.7038C15.3838 18.9471 18.7491 19.0146 20.6509 17.0876L24.8461 12.8369C25.1953 12.4831 25.7651 12.4794 26.1189 12.8286C26.4727 13.1777 26.4764 13.7475 26.1272 14.1013L21.9321 18.352C19.2215 21.0984 14.7002 20.815 11.8837 17.9702C9.06824 15.1264 8.80449 10.5568 11.5049 7.82064C11.5049 7.82064 11.5049 7.82064 11.5049 7.82064L15.7001 3.56993C16.0493 3.21616 16.6191 3.21241 16.9729 3.56157Z" fill="#1B1B21"/>
<path fill-rule="evenodd" clip-rule="evenodd" d="M15.7085 3.56158C16.0623 3.21242 16.6321 3.21617 16.9813 3.56994L26.1273 12.8369C26.4764 13.1907 26.4727 13.7605 26.1189 14.1097C25.7651 14.4589 25.1953 14.4551 24.8461 14.1013L15.7001 4.83434C15.351 4.48057 15.3547 3.91073 15.7085 3.56158Z" fill="#1B1B21"/>
<path fill-rule="evenodd" clip-rule="evenodd" d="M22.3101 2.78882C22.6634 3.13843 22.6664 3.70827 22.3168 4.06159L19.2629 7.14793C18.9133 7.50125 18.3434 7.50426 17.9901 7.15465C17.6368 6.80504 17.6338 6.2352 17.9834 5.88188L21.0373 2.79554C21.3869 2.44221 21.9568 2.43921 22.3101 2.78882Z" fill="#1B1B21"/>
<path fill-rule="evenodd" clip-rule="evenodd" d="M26.8816 7.42068C27.2358 7.76938 27.2403 8.33921 26.8916 8.69344L23.8455 11.7877C23.4968 12.142 22.927 12.1465 22.5728 11.7978C22.2185 11.4491 22.2141 10.8792 22.5628 10.525L25.6088 7.43069C25.9575 7.07646 26.5273 7.07199 26.8816 7.42068Z" fill="#1B1B21"/>
<path fill-rule="evenodd" clip-rule="evenodd" d="M15.3638 9.07789C15.7152 8.72642 16.2851 8.72642 16.6365 9.07789L20.6365 13.0779C20.988 13.4294 20.988 13.9992 20.6365 14.3507C20.2851 14.7022 19.7152 14.7022 19.3638 14.3507L15.3638 10.3507C15.0123 9.99921 15.0123 9.42936 15.3638 9.07789Z" fill="#1B1B21"/>
<path fill-rule="evenodd" clip-rule="evenodd" d="M12.1469 15.3955C12.5013 15.7441 12.5059 16.3139 12.1574 16.6683L10.3618 18.4935L11.3831 19.5318L13.1656 17.7256C13.5148 17.3719 14.0846 17.3681 14.4384 17.7173C14.7922 18.0664 14.7959 18.6363 14.4468 18.99L12.0225 21.4463C11.8532 21.6179 11.6222 21.7144 11.3812 21.7141C11.1402 21.7139 10.9093 21.6171 10.7403 21.4452L8.45775 19.1245C8.11326 18.7743 8.11329 18.2125 8.45781 17.8623L10.8742 15.4059C11.2228 15.0516 11.7926 15.0469 12.1469 15.3955Z" fill="#1B1B21"/>
<path fill-rule="evenodd" clip-rule="evenodd" d="M10.8729 19.0092C11.2267 19.3584 11.2304 19.9282 10.8813 20.282L5.92261 25.3063C5.91195 25.3171 5.90103 25.3276 5.88984 25.3378C5.763 25.454 5.66009 25.5957 5.58798 25.7547C5.51585 25.9138 5.47621 26.0866 5.47183 26.2625C5.46744 26.4384 5.49842 26.6131 5.56258 26.7758C5.62674 26.9385 5.72256 27.0855 5.84363 27.2082C5.96468 27.3308 6.10839 27.4266 6.26565 27.4902C6.4229 27.5539 6.59086 27.5843 6.75947 27.58C6.92808 27.5757 7.09442 27.5367 7.24848 27.465C7.40257 27.3933 7.54151 27.2902 7.65643 27.1613C7.66651 27.15 7.67688 27.139 7.68752 27.1282L11.1192 23.6511C11.1292 23.6409 11.1395 23.6311 11.15 23.6214C11.6288 23.1802 12.2592 22.9409 12.9107 22.9566C13.5622 22.9723 14.1804 23.2415 14.6377 23.7049C15.0947 24.1679 15.3561 24.789 15.3713 25.4387C15.3866 26.0884 15.1544 26.7211 14.72 27.2051C14.7105 27.2157 14.7008 27.2261 14.6908 27.2362L12.8805 29.0705C12.5313 29.4242 11.9615 29.428 11.6077 29.0788C11.254 28.7297 11.2502 28.1599 11.5994 27.8061L13.3917 25.99C13.5109 25.8509 13.5763 25.6694 13.5718 25.4809C13.5673 25.2864 13.489 25.1034 13.3566 24.9693C13.2246 24.8355 13.0491 24.7605 12.8675 24.7561C12.6914 24.7519 12.5183 24.8142 12.3824 24.9337L8.98323 28.3778C8.70923 28.6801 8.37783 28.9248 8.00799 29.0969C7.63066 29.2725 7.22152 29.3688 6.80554 29.3794C6.38958 29.3901 5.97608 29.3149 5.59029 29.1587C5.20451 29.0026 4.85495 28.7689 4.5625 28.4726C4.27008 28.1763 4.04082 27.8235 3.88803 27.436C3.73526 27.0485 3.662 26.634 3.67239 26.2176C3.68277 25.8012 3.77662 25.3909 3.94858 25.0115C4.11715 24.6397 4.3575 24.3049 4.65607 24.0271L9.60015 19.0176C9.9493 18.6638 10.5191 18.6601 10.8729 19.0092Z" fill="#1B1B21"/>
</svg>
