<svg width="32" height="32" viewBox="0 0 32 32" fill="none" xmlns="http://www.w3.org/2000/svg">
<path fill-rule="evenodd" clip-rule="evenodd" d="M14.2128 2.75878C14.3642 2.45112 14.6774 2.25625 15.0203 2.25625H23.1588C23.4925 2.25625 23.7989 2.44096 23.9547 2.73612C24.1105 3.03129 24.0902 3.38844 23.9019 3.66401L17.5194 13.0044L22.4699 14.3612C22.7718 14.4439 23.009 14.6776 23.0963 14.9782C23.1836 15.2788 23.1084 15.6031 22.8978 15.8347L10.5197 29.4454C10.2297 29.7643 9.75425 29.8328 9.38601 29.6087C9.01777 29.3846 8.86012 28.9309 9.01006 28.5268L13.0465 17.6475L8.66763 16.4461C8.40879 16.3751 8.19515 16.1922 8.08502 15.9475C7.97489 15.7027 7.97975 15.4215 8.09829 15.1807L14.2128 2.75878ZM15.5804 4.05625L10.1943 14.9985L14.4701 16.1716C14.7135 16.2384 14.9177 16.4043 15.0328 16.6289C15.148 16.8534 15.1636 17.116 15.0758 17.3526L12.3136 24.7975L20.5789 15.7093L15.8263 14.4068C15.5457 14.3299 15.3196 14.1221 15.2194 13.849C15.1191 13.5759 15.157 13.2712 15.3211 13.031L21.4537 4.05625H15.5804Z" fill="#1B1B21"/>
</svg>
