<svg width="32" height="32" viewBox="0 0 32 32" fill="none" xmlns="http://www.w3.org/2000/svg">
<path fill-rule="evenodd" clip-rule="evenodd" d="M7.1436 7.97131C6.65341 7.97131 6.25336 8.3636 6.24377 8.85369L6.23781 9.15854H3.3248C2.82775 9.15854 2.4248 9.56148 2.4248 10.0585V13.3192H2.07145C1.57439 13.3192 1.17145 13.7221 1.17145 14.2192V17.7808C1.17145 18.2778 1.57439 18.6808 2.07145 18.6808H2.4248V21.9414C2.4248 22.4385 2.82775 22.8414 3.3248 22.8414H6.2436V23.1287C6.2436 23.6257 6.64654 24.0287 7.1436 24.0287H10.9392C11.4362 24.0287 11.8392 23.6257 11.8392 23.1287V18.6808H20.1726V23.1287C20.1726 23.6257 20.5755 24.0287 21.0726 24.0287H24.8681C25.3652 24.0287 25.7681 23.6257 25.7681 23.1287V22.8414H28.6636C29.1606 22.8414 29.5636 22.4385 29.5636 21.9414V18.6808H29.9287C30.4257 18.6808 30.8287 18.2778 30.8287 17.7808V14.2192C30.8287 13.7221 30.4257 13.3192 29.9287 13.3192H29.5636V10.0585C29.5636 9.56148 29.1606 9.15854 28.6636 9.15854H25.7681V8.87131C25.7681 8.37425 25.3652 7.97131 24.8681 7.97131H21.0726C20.5755 7.97131 20.1726 8.37425 20.1726 8.87131V13.3192H11.8392V8.87131C11.8392 8.37425 11.4362 7.97131 10.9392 7.97131H7.1436ZM4.23663 17.7808C4.23663 17.8306 4.23258 17.8794 4.2248 17.927V21.0414H7.1436C7.64066 21.0414 8.0436 21.4444 8.0436 21.9414V22.2287H10.0392V9.77131H8.02616L8.02019 10.0761C8.0106 10.5662 7.61055 10.9585 7.12036 10.9585H4.2248V14.0729C4.23258 14.1205 4.23663 14.1694 4.23663 14.2192V17.7808ZM27.7636 10.9585V14.2079L27.7635 14.2192V17.7808L27.7636 17.792V21.0414H24.8681C24.3711 21.0414 23.9681 21.4444 23.9681 21.9414V22.2287H21.9726V9.77131H23.9681V10.0585C23.9681 10.5556 24.3711 10.9585 24.8681 10.9585H27.7636ZM11.8392 16.8808V15.1192H20.1723V16.8808H11.8392Z" fill="#1B1B21"/>
</svg>
