<svg width="32" height="32" viewBox="0 0 32 32" fill="none" xmlns="http://www.w3.org/2000/svg">
<path fill-rule="evenodd" clip-rule="evenodd" d="M8.50545 5.7289C7.47537 5.7289 6.49716 6.15953 5.78323 6.91016C5.07075 7.65927 4.67793 8.66606 4.67793 9.70692V11.3797C4.19922 11.5715 3.75731 11.8578 3.3782 12.2261C2.63904 12.9441 2.1921 13.9201 2.11401 14.9562L2.11107 14.9953L2.11153 15.0344C2.11802 15.5869 2.23998 16.1327 2.47037 16.6333C2.68929 17.109 3.00179 17.5344 3.38987 17.8808V25.0992C3.38987 25.3909 3.49924 25.6803 3.70909 25.9009C3.9201 26.1228 4.21598 26.2557 4.53383 26.2557H8.99336C9.3117 26.2557 9.60731 26.1224 9.81799 25.9009C10.0265 25.6816 10.1367 25.3935 10.1373 25.1016H22.0045C22.0271 25.3586 22.1347 25.6067 22.3193 25.8009C22.53 26.0224 22.8256 26.1557 23.144 26.1557H27.6035C27.9213 26.1557 28.2172 26.0227 28.4282 25.8009C28.6381 25.5802 28.7474 25.2908 28.7474 24.9992V17.7807C29.1355 17.4344 29.448 17.009 29.6669 16.5333C29.8973 16.0327 30.0193 15.4869 30.0258 14.9344L30.0262 14.8953L30.0233 14.8562C29.9452 13.8201 29.4983 12.8441 28.7591 12.1261C28.3465 11.7253 27.8595 11.4215 27.3316 11.231V9.70692C27.3316 8.66606 26.9388 7.65927 26.2263 6.91016C25.5124 6.15953 24.5342 5.7289 23.5041 5.7289H8.50545ZM25.5316 11.03V9.70692C25.5316 9.11511 25.3076 8.55605 24.922 8.15067C24.5379 7.74682 24.0269 7.5289 23.5041 7.5289H8.50545C7.98267 7.5289 7.4716 7.74682 7.0875 8.15067C6.70195 8.55605 6.47793 9.11511 6.47793 9.70692V11.1162C7.37356 11.1982 8.21573 11.59 8.87059 12.2261C9.60975 12.9441 10.0567 13.9201 10.1348 14.9562L10.1373 14.99V16.8891H22V14.89L22.0025 14.8562C22.0806 13.8201 22.5276 12.8441 23.2667 12.1261C23.8903 11.5203 24.6838 11.1361 25.5316 11.03ZM27.5049 13.4172C27.0915 13.0156 26.558 12.8 26.0129 12.8C25.4677 12.8 24.9344 13.0156 24.5209 13.4172C24.1133 13.8132 23.8525 14.3619 23.8 14.9603V24.3557H26.9474V16.9721L27.5099 16.4717L27.5169 16.4657C27.7313 16.2827 27.9081 16.0496 28.0318 15.7808C28.1503 15.5234 28.2165 15.2409 28.2251 14.952C28.171 14.3568 27.9107 13.8114 27.5049 13.4172ZM4.63239 13.5172C5.04583 13.1156 5.5793 12.9 6.12445 12.9C6.66957 12.9 7.20293 13.1156 7.6164 13.5172C8.02405 13.9132 8.28484 14.4619 8.33732 15.0603V24.4557H5.18987V17.0721L4.62743 16.5717L4.62038 16.5657C4.40597 16.3827 4.2292 16.1496 4.10552 15.8808C3.98706 15.6234 3.92077 15.3409 3.91221 15.052C3.96635 14.4568 4.22662 13.9114 4.63239 13.5172ZM10.3129 18.6891V23.3016H21.6867V18.6891H10.3129Z" fill="#1B1B21"/>
</svg>
