<svg width="32" height="32" viewBox="0 0 32 32" fill="none" xmlns="http://www.w3.org/2000/svg">
<path fill-rule="evenodd" clip-rule="evenodd" d="M23.2552 2.95127C23.339 2.05518 23.338 2.05509 23.338 2.05509L23.3369 2.05499L23.3344 2.05477L23.3284 2.05424L23.312 2.05293C23.2992 2.05197 23.2827 2.05083 23.2627 2.0497C23.2227 2.04743 23.1685 2.04515 23.1021 2.04418C22.9698 2.04225 22.7869 2.04553 22.5697 2.06522C22.1402 2.10416 21.5497 2.20964 20.9461 2.48665C20.3354 2.76697 19.7056 3.22639 19.2339 3.96399C18.8721 4.52987 18.6262 5.22358 18.5315 6.06115C18.4459 6.11945 18.369 6.19362 18.3054 6.28288C18.2883 6.30685 18.2716 6.33103 18.2553 6.35543C18.0634 6.04809 17.8474 5.78022 17.6107 5.54903C16.9844 4.93717 16.2663 4.6335 15.6075 4.50036C14.9566 4.36882 14.3571 4.40167 13.9299 4.46232C13.7138 4.49301 13.5348 4.53182 13.4064 4.56407C13.3419 4.58025 13.2897 4.59491 13.2512 4.6063C13.232 4.612 13.2161 4.61689 13.2039 4.62077L13.1883 4.62579L13.1825 4.62768L13.1802 4.62846L13.1791 4.62881C13.1791 4.62881 13.1782 4.62913 13.4651 5.48216L13.1782 4.62913C12.9754 4.69733 12.8036 4.83552 12.6935 5.01891L12.5554 5.24899C12.4521 5.42102 12.4093 5.62263 12.4337 5.82179C12.5143 6.47915 12.7391 7.11056 13.0923 7.66987C13.4456 8.22925 13.9184 8.70261 14.477 9.0548C15.0355 9.40702 15.6655 9.62902 16.3209 9.70394C16.7932 9.75793 17.2697 9.73452 17.7322 9.63583V11.7383C16.5514 11.8687 15.3992 12.1885 14.3261 12.6872C13.0649 13.2732 11.94 14.0939 11.0194 15.1014H10.3616C10.0334 15.0901 9.70547 15.1555 9.40631 15.294C9.09991 15.4359 8.83064 15.6514 8.62742 15.9254C8.42391 16.1998 8.29422 16.5228 8.25523 16.8649C8.21623 17.2072 8.26994 17.5519 8.40912 17.8657C8.41488 17.8787 8.42096 17.8916 8.42733 17.9043L9.70236 20.4468L7.95521 20.5352C7.91697 20.5309 7.87965 20.5161 7.84741 20.491C7.80968 20.4616 7.78059 20.4194 7.76646 20.3695L5.06933 10.9042C4.94966 10.4764 4.69674 10.0969 4.34572 9.8228C3.99365 9.54789 3.56204 9.39411 3.11477 9.38586L3.09817 9.38571H1.14286C0.645803 9.38571 0.242859 9.78866 0.242859 10.2857C0.242859 10.7828 0.645803 11.1857 1.14286 11.1857H3.08689C3.14059 11.1878 3.19341 11.2068 3.23791 11.2415C3.28406 11.2776 3.31915 11.3291 3.33597 11.3896L6.03475 20.8606C6.15272 21.2767 6.39992 21.6454 6.74213 21.9117C7.08476 22.1782 7.50423 22.3276 7.93903 22.3361C7.96006 22.3365 7.9811 22.3362 8.00211 22.3351L10.4395 22.2119C10.487 22.2095 10.5334 22.2034 10.5785 22.194L11.0168 23.0681L11.0271 23.0879C11.1328 23.2863 11.27 23.4639 11.4314 23.6156C11.4085 23.6643 11.3897 23.7156 11.3754 23.7694L10.563 26.8344C10.5513 26.8785 10.543 26.9234 10.5381 26.9688C10.4431 27.8524 11.0382 28.4685 11.6179 28.721C12.2018 28.9754 13.0004 28.9807 13.6272 28.4687C13.6413 28.4572 13.655 28.4452 13.6684 28.4329L17.7534 24.6613C17.8051 24.6135 17.8499 24.5611 17.8878 24.5054L23.9357 24.881C23.779 25.2956 23.6932 25.7451 23.6932 26.2138C23.6932 28.2714 25.3452 29.9569 27.4043 29.9569C29.4635 29.9569 31.1154 28.2714 31.1154 26.2138C31.1154 24.1562 29.4635 22.4707 27.4043 22.4707C27.2187 22.4707 27.0363 22.4844 26.8582 22.5108L29.2669 17.9362C29.2722 17.926 29.2774 17.9157 29.2824 17.9053C29.4322 17.5922 29.4954 17.2449 29.4633 16.8978C29.4311 16.5509 29.3053 16.2217 29.1029 15.9416C28.9007 15.6618 28.6299 15.4415 28.3207 15.2967C28.0192 15.1556 27.6879 15.0892 27.3565 15.1014H26.8754C25.8853 14.0177 24.6603 13.152 23.2868 12.561C22.1007 12.0507 20.8272 11.7553 19.5322 11.6869V8.07849C19.5322 8.03893 19.534 7.99954 19.5375 7.96042C20.1758 8.01854 20.819 7.93609 21.4228 7.71872C22.044 7.49502 22.6073 7.13428 23.0718 6.66346C23.5363 6.19268 23.8905 5.62372 24.1091 4.99838C24.3278 4.37306 24.4056 3.70661 24.3373 3.04744C24.3161 2.84365 24.2261 2.65318 24.0821 2.50749L23.8952 2.31849C23.7465 2.16809 23.5496 2.07487 23.339 2.05518L23.2552 2.95127ZM24.1648 15.1014C23.6725 14.7552 23.14 14.4574 22.5754 14.2145C21.3988 13.7082 20.1147 13.4541 18.8171 13.4723C17.5194 13.4906 16.2442 13.7807 15.0847 14.3195C14.6065 14.5417 14.1533 14.8038 13.7301 15.1014H24.1648ZM24.5778 22.9736C24.5824 22.9672 24.5866 22.9609 24.5903 22.9545L27.6624 17.1199C27.6703 17.1002 27.6726 17.0813 27.6709 17.0638C27.6691 17.0436 27.6615 17.0201 27.644 16.9959C27.6262 16.9713 27.5978 16.9458 27.5575 16.9269C27.5169 16.9079 27.469 16.8979 27.419 16.9004C27.4044 16.9011 27.3899 16.9014 27.3753 16.9014H10.344C10.3304 16.9014 10.3168 16.9011 10.3032 16.9005C10.2526 16.8982 10.204 16.9083 10.1626 16.9274C10.1215 16.9465 10.092 16.9723 10.0731 16.9978C10.0546 17.0228 10.0461 17.0474 10.0437 17.0687C10.0416 17.0866 10.0434 17.1056 10.0503 17.1252L12.6189 22.2474C12.6377 22.28 12.6681 22.3134 12.7121 22.3405C12.7591 22.3693 12.8174 22.3881 12.8811 22.391L12.8959 22.3918L24.2558 23.0974L24.2 23.9957L24.2218 23.7296C24.2187 23.6548 24.2248 23.5797 24.2401 23.5063L24.2736 23.0987C24.3461 23.1047 24.4165 23.0898 24.4746 23.0598C24.4783 23.0579 24.4819 23.0559 24.4854 23.054C24.4957 23.0437 24.5062 23.0337 24.5171 23.0239C24.5368 23.0061 24.557 22.9893 24.5778 22.9736ZM15.4339 24.3529L13.1207 24.2092C13.119 24.2164 13.1172 24.2235 13.1154 24.2306L12.3602 27.0795C12.3896 27.0887 12.4195 27.0918 12.4439 27.0896C12.4615 27.088 12.4725 27.0843 12.4797 27.0805L15.4339 24.3529ZM21.697 4.12258C21.9839 3.99088 22.279 3.9188 22.5361 3.88111C22.5116 4.05885 22.4695 4.23414 22.41 4.40425C22.2789 4.77918 22.067 5.11899 21.7905 5.39923C21.514 5.67943 21.18 5.893 20.813 6.02515C20.6572 6.08125 20.497 6.12211 20.3346 6.14748C20.4101 5.60758 20.5688 5.21776 20.7504 4.9337C21.0039 4.53734 21.3409 4.28598 21.697 4.12258ZM14.3726 6.22265C14.4364 6.39224 14.5173 6.55519 14.6143 6.70882C14.8251 7.04262 15.1064 7.32372 15.437 7.53223C15.7677 7.7407 16.1395 7.87148 16.5253 7.91559C16.6933 7.93478 16.8622 7.93737 17.0296 7.92359C16.835 7.41444 16.5931 7.07123 16.3529 6.83659C16.018 6.50939 15.6341 6.34212 15.251 6.2647C14.9393 6.20172 14.6331 6.19971 14.3726 6.22265ZM25.6023 25.5642C25.5317 25.7669 25.4932 25.9854 25.4932 26.2138C25.4932 27.2966 26.3584 28.1569 27.4043 28.1569C28.4502 28.1569 29.3154 27.2966 29.3154 26.2138C29.3154 25.131 28.4502 24.2707 27.4043 24.2707C27.2364 24.2707 27.073 24.2929 26.9172 24.3346L28.0713 25.6099C28.4049 25.9784 28.3765 26.5476 28.0079 26.8811C27.6394 27.2146 27.0703 27.1863 26.7367 26.8177L25.6023 25.5642Z" fill="#1B1B21"/>
</svg>
