<svg width="32" height="32" viewBox="0 0 32 32" fill="none" xmlns="http://www.w3.org/2000/svg">
<path fill-rule="evenodd" clip-rule="evenodd" d="M3.38077 16.6877C3.38077 10.0525 9.09099 4.78429 15.9999 4.78429C22.92 4.78429 28.619 10.053 28.619 16.6877C28.619 17.1848 28.2161 17.5877 27.719 17.5877C27.2606 17.5877 26.8823 17.245 26.8262 16.8018C26.7609 16.7416 26.6217 16.648 26.3791 16.5508C25.888 16.3543 25.1464 16.2123 24.2778 16.2123C23.4091 16.2123 22.6644 16.3543 22.17 16.5513C21.9256 16.6488 21.7848 16.7428 21.7186 16.8036C21.6617 17.2459 21.2837 17.5877 20.8259 17.5877C20.4025 17.5877 20.0473 17.2952 19.9514 16.9013C19.9493 16.8998 19.947 16.8982 19.9447 16.8967C19.8144 16.808 19.5659 16.6922 19.176 16.5805C18.4083 16.3608 17.2893 16.2123 15.9999 16.2123C14.7105 16.2123 13.5915 16.3608 12.8237 16.5805C12.4338 16.6922 12.1853 16.808 12.055 16.8967C12.0526 16.8982 12.0504 16.8998 12.0482 16.9013C11.9523 17.2953 11.5972 17.5877 11.1737 17.5877C10.7153 17.5877 10.3369 17.245 10.2809 16.8018C10.2156 16.7416 10.0764 16.6479 9.83381 16.5508C9.34276 16.3543 8.60123 16.2123 7.73257 16.2123C6.86393 16.2123 6.11917 16.3543 5.62478 16.5513C5.38038 16.6488 5.23957 16.7428 5.17337 16.8036C5.11652 17.2459 4.73856 17.5877 4.28077 17.5877C3.78371 17.5877 3.38077 17.1848 3.38077 16.6877ZM5.38432 14.7309C6.35689 10.1161 10.7028 6.58429 15.9999 6.58429C21.3051 6.58429 25.6439 10.1147 26.6155 14.7288C25.9368 14.5235 25.1271 14.4123 24.2778 14.4123C23.2394 14.4123 22.2582 14.5784 21.5035 14.8793C21.2381 14.985 20.9783 15.1163 20.7481 15.2792C20.4329 15.1017 20.061 14.9616 19.6714 14.8501C18.6999 14.5719 17.4059 14.4123 15.9999 14.4123C14.5939 14.4123 13.2998 14.5719 12.3283 14.8501C11.9393 14.9614 11.568 15.1013 11.253 15.2784C11.0243 15.1161 10.7663 14.9853 10.5027 14.8798C9.74998 14.5784 8.77094 14.4123 7.73257 14.4123C6.88004 14.4123 6.06608 14.5243 5.38432 14.7309ZM10.3097 16.8317C10.31 16.8321 10.3097 16.8317 10.3097 16.8317V16.8317ZM20.011 16.9493C20.0106 16.9493 20.0071 16.9462 20.0016 16.9397C20.0087 16.946 20.0115 16.9493 20.011 16.9493ZM5.14465 16.8331C5.14426 16.8336 5.14405 16.8339 5.14404 16.8339L5.14465 16.8331ZM11.9886 16.9493C11.9882 16.9493 11.9909 16.946 11.998 16.9397C11.9926 16.9462 11.989 16.9494 11.9886 16.9493ZM21.6892 16.8339C21.6888 16.8344 21.6892 16.8339 21.6892 16.8339V16.8339Z" fill="#1B1B21"/>
<path fill-rule="evenodd" clip-rule="evenodd" d="M15.5535 4.9029C15.8302 4.74476 16.17 4.74476 16.4467 4.9029C18.351 5.99122 21.6943 9.79367 21.6943 16.6877H19.8943C19.8943 11.0233 17.4373 7.88624 16.0001 6.76954C14.5629 7.88624 12.1059 11.0233 12.1059 16.6877H10.3059C10.3059 9.79367 13.6492 5.99122 15.5535 4.9029Z" fill="#1B1B21"/>
<path fill-rule="evenodd" clip-rule="evenodd" d="M16 3.40887C16.4971 3.40887 16.9 3.81182 16.9 4.30887V4.85905C16.9 5.3561 16.4971 5.75905 16 5.75905C15.503 5.75905 15.1 5.3561 15.1 4.85905V4.30887C15.1 3.81182 15.503 3.40887 16 3.40887Z" fill="#1B1B21"/>
<path fill-rule="evenodd" clip-rule="evenodd" d="M15.9997 14.6859C16.4968 14.6859 16.8997 15.0889 16.8997 15.5859V24.9939C16.8997 25.953 16.531 26.8784 15.8661 27.565C15.2003 28.2528 14.291 28.6447 13.3363 28.6447C12.3817 28.6447 11.4722 28.2528 10.8063 27.565C10.1414 26.8783 9.77286 25.9529 9.77286 24.9939C9.77286 24.4968 10.1758 24.0939 10.6729 24.0939C11.1699 24.0939 11.5729 24.4968 11.5729 24.9939C11.5729 25.494 11.7655 25.968 12.0995 26.313C12.4326 26.657 12.8781 26.8447 13.3363 26.8447C13.7944 26.8447 14.2398 26.657 14.573 26.313C14.9071 25.9679 15.0997 25.4939 15.0997 24.9939V15.5859C15.0997 15.0889 15.5027 14.6859 15.9997 14.6859Z" fill="#1B1B21"/>
</svg>
