<svg width="32" height="32" viewBox="0 0 32 32" fill="none" xmlns="http://www.w3.org/2000/svg">
<path fill-rule="evenodd" clip-rule="evenodd" d="M16.1406 4.66229C16.1005 4.65595 16.0597 4.65229 16.0185 4.65145C15.9648 4.65036 15.9117 4.65406 15.8596 4.66229H7.25064C6.93375 4.66229 6.64021 4.82895 6.47781 5.10106L2.46995 11.8166C2.27414 12.1447 2.30684 12.5607 2.5515 12.8542L15.309 28.1569C15.48 28.3621 15.7332 28.4806 16.0003 28.4806C16.2673 28.4806 16.5205 28.3621 16.6915 28.1569L29.449 12.8542C29.6934 12.561 29.7263 12.1455 29.5311 11.8175L25.5337 5.10196C25.3715 4.82934 25.0776 4.66229 24.7604 4.66229H16.1406ZM14.1873 6.46229H8.8637L11.2835 10.318L14.1873 6.46229ZM7.26296 7.29784L5.28794 10.6072H9.33991L7.26296 7.29784ZM15.9631 24.0381L12.3138 12.4072H19.3123L15.9631 24.0381ZM17.8649 23.9385L27.4782 12.4072H21.1854L17.8649 23.9385ZM10.4273 12.4072L13.9908 23.7647L4.52232 12.4072H10.4273ZM22.3779 10.6072H26.7159L24.7061 7.2307L22.3779 10.6072ZM23.0495 6.46229L20.3899 10.3194L17.7239 6.46229H23.0495ZM18.4007 10.6072H13.3191L15.9688 7.08884L18.4007 10.6072Z" fill="#1B1B21"/>
</svg>
