<svg width="32" height="32" viewBox="0 0 32 32" fill="none" xmlns="http://www.w3.org/2000/svg">
<path fill-rule="evenodd" clip-rule="evenodd" d="M17.696 2.06151L17.6907 2.06149L17.6854 2.06151H14.3064L14.3011 2.06149L14.2958 2.06151H7.53013C7.03307 2.06151 6.63013 2.46445 6.63013 2.96151V29.0385C6.63013 29.5356 7.03307 29.9385 7.53013 29.9385H14.301C14.7981 29.9385 15.201 29.5356 15.201 29.0385V14.0134C15.2138 13.9993 15.2488 13.9668 15.3246 13.9277C15.5135 13.8302 15.7857 13.7787 15.9833 13.7787C16.0417 13.7787 16.1432 13.7901 16.2691 13.8243C16.3925 13.8578 16.5128 13.9061 16.6118 13.9621C16.6918 14.0073 16.74 14.0472 16.7655 14.073V29.0385C16.7655 29.5356 17.1684 29.9385 17.6655 29.9385H24.4364C24.9335 29.9385 25.3364 29.5356 25.3364 29.0385V11.0707C25.3585 10.9923 25.3702 10.9096 25.3701 10.8241C25.3699 10.7399 25.3582 10.6585 25.3364 10.5814V2.96151C25.3364 2.46445 24.9335 2.06151 24.4364 2.06151H17.696ZM16.7907 3.86151H15.2011V5.17012H16.7907V3.86151ZM13.4011 3.86151H8.43013V5.17012H13.4011V3.86151ZM8.43013 6.97012V9.79179C8.52121 9.76374 8.61109 9.73136 8.69948 9.6947C9.06979 9.54111 9.40649 9.3155 9.69017 9.0306C9.97386 8.74568 10.1989 8.40708 10.3523 8.03414C10.4914 7.69587 10.5689 7.33548 10.5815 6.97012H8.43013ZM8.43013 11.643V28.1385H13.401V14.0106C13.401 13.1248 13.9885 12.5916 14.4992 12.3281C14.9979 12.0708 15.5668 11.9787 15.9833 11.9787C16.4554 11.9787 17.0275 12.1295 17.4974 12.395C17.9365 12.6432 18.5655 13.1621 18.5655 14.0106V28.1385H23.5364V11.6365C23.2202 11.5748 22.9102 11.4814 22.6111 11.3574C22.0212 11.1127 21.4854 10.7535 21.0345 10.3007C20.5836 9.84778 20.2263 9.31012 19.9831 8.71867C19.7547 8.1631 19.631 7.57021 19.618 6.97012H12.3822C12.3692 7.57019 12.2455 8.16308 12.017 8.71867C11.7738 9.31012 11.4166 9.84778 10.9657 10.3007C10.5148 10.7535 9.979 11.1127 9.38906 11.3574C9.07936 11.4858 8.75797 11.5814 8.43013 11.643ZM23.5364 9.78121V6.97012H21.4186C21.4312 7.33546 21.5088 7.69585 21.6479 8.03414C21.8012 8.40708 22.0263 8.74568 22.31 9.0306C22.5937 9.3155 22.9304 9.54111 23.3007 9.6947C23.3782 9.72683 23.4568 9.75568 23.5364 9.78121ZM23.5364 5.17012H18.5907V3.86151H23.5364V5.17012Z" fill="#1B1B21"/>
</svg>
