<svg width="32" height="32" viewBox="0 0 32 32" fill="none" xmlns="http://www.w3.org/2000/svg">
<path fill-rule="evenodd" clip-rule="evenodd" d="M12.8718 9.6462C12.8718 9.14914 13.2748 8.7462 13.7718 8.7462H17.5109C18.008 8.7462 18.4109 9.14914 18.4109 9.6462V13.4691C18.4109 13.9661 18.008 14.3691 17.5109 14.3691H13.7718C13.2748 14.3691 12.8718 13.9661 12.8718 13.4691V9.6462ZM14.6718 10.5462V12.5691H16.6109V10.5462H14.6718Z" fill="#1B1B21"/>
<path fill-rule="evenodd" clip-rule="evenodd" d="M15.6452 2.2644C15.0807 2.2644 14.5408 2.48334 14.1334 2.87121L6.40249 10.1398C6.1336 10.3926 6.04631 10.7839 6.18228 11.1271C6.31824 11.4702 6.64991 11.6955 7.01898 11.6955H9.05285V18.0603C8.30418 18.5937 7.64282 19.2529 7.09894 20.0144L4.91448 23.0629C4.6721 23.4029 4.55375 23.8189 4.57997 24.2388C4.60618 24.6586 4.77529 25.0559 5.05798 25.3616L8.62168 29.16C8.78624 29.3341 8.98314 29.4727 9.20081 29.5679C9.41849 29.6631 9.65256 29.7129 9.88931 29.7143H10.0089C10.2652 29.6983 10.5148 29.6241 10.7395 29.4972C10.9643 29.3703 11.1586 29.1939 11.3084 28.9807L13.0703 26.5353L20.6761 25.2719C21.1638 25.1854 21.6284 24.9956 22.0403 24.7149C22.4521 24.4342 22.8021 24.0687 23.0679 23.6417L27.0063 17.4794C27.3671 16.9038 27.494 16.207 27.36 15.5372C27.226 14.8674 26.8416 14.2774 26.2887 13.8929C25.8703 13.6015 25.3759 13.4453 24.8696 13.4446L24.9254 13.4854C24.2842 13.4866 23.6668 13.7338 23.1954 14.1782L22.2376 15.1023V11.6955H24.2715C24.6405 11.6955 24.9722 11.4702 25.1082 11.1271C25.2441 10.7839 25.1568 10.3926 24.8879 10.1398L21.3688 6.83109V4.3398C21.3688 3.84275 20.9658 3.4398 20.4688 3.4398C19.9717 3.4398 19.5688 3.84275 19.5688 4.3398V5.13875L17.157 2.87121C16.7496 2.48333 16.2097 2.2644 15.6452 2.2644ZM19.7412 7.77155L15.9162 4.17532C15.8395 4.102 15.7424 4.0644 15.6452 4.0644C15.548 4.0644 15.4509 4.10197 15.3742 4.1753L15.3688 4.18042L9.29013 9.8955H9.95285C10.4499 9.8955 10.8528 10.2984 10.8528 10.7955V17.0894C10.8824 17.0779 10.912 17.0667 10.9417 17.0556L15.4222 15.4253C15.6762 15.3241 15.9469 15.2743 16.2195 15.2786C16.5593 15.2785 16.8947 15.3578 17.2 15.5104C17.5054 15.663 17.7726 15.8848 17.9814 16.159L18.0611 16.2649C18.2964 16.5804 18.4636 16.9433 18.5515 17.3297C18.6395 17.7161 18.6463 18.1172 18.5714 18.5065C18.5315 18.5635 18.5315 18.6206 18.5315 18.6777L20.4378 16.8386L20.4376 16.8192V10.7955C20.4376 10.2984 20.8405 9.8955 21.3376 9.8955H22.0003L19.9848 8.00056C19.8901 7.94001 19.8074 7.8622 19.7412 7.77155ZM25.332 15.3846C25.2032 15.2926 25.0507 15.2415 24.8935 15.2379L24.9254 15.2786C24.724 15.2793 24.5303 15.358 24.3833 15.4987L19.3367 20.3894C17.6389 20.8664 15.9097 21.2178 14.1626 21.4409C13.9314 21.4409 13.7799 21.4001 13.7799 21.3186C13.7161 20.7318 16.06 19.2482 16.06 19.2482C16.2256 19.1755 16.3745 19.0682 16.4972 18.9331C16.6198 18.7981 16.7134 18.6382 16.772 18.4639C16.8305 18.2897 16.8528 18.1048 16.8373 17.9212C16.8217 17.7376 16.7688 17.5594 16.6819 17.3979L16.6022 17.292C16.5564 17.2326 16.4984 17.1842 16.4322 17.1504C16.366 17.1166 16.2934 17.0981 16.2195 17.0964C16.1639 17.0886 16.1076 17.0886 16.0521 17.0964L11.5795 18.7755C10.3661 19.2286 9.31167 20.04 8.54994 21.1067L6.3575 24.1552L9.88931 27.921L12.0817 24.848L20.3971 23.4705C20.6463 23.4305 20.8844 23.3373 21.096 23.1968C21.3075 23.0564 21.4877 22.8719 21.6248 22.6554L25.5553 16.5013C25.6682 16.3222 25.708 16.1051 25.6663 15.8964C25.6246 15.6877 25.5046 15.504 25.332 15.3846Z" fill="#1B1B21"/>
</svg>
