<svg width="32" height="32" viewBox="0 0 32 32" fill="none" xmlns="http://www.w3.org/2000/svg">
<path fill-rule="evenodd" clip-rule="evenodd" d="M8.87344 8.39028C8.87344 6.42753 10.1417 4.42812 12.1502 4.42812C14.1588 4.42812 15.427 6.42753 15.427 8.39028C15.427 10.353 14.1588 12.3524 12.1502 12.3524C10.1417 12.3524 8.87344 10.353 8.87344 8.39028ZM12.1502 6.22812C11.5335 6.22812 10.6734 6.97067 10.6734 8.39028C10.6734 9.80989 11.5335 10.5524 12.1502 10.5524C12.767 10.5524 13.627 9.80989 13.627 8.39028C13.627 6.97067 12.767 6.22812 12.1502 6.22812Z" fill="#1B1B21"/>
<path fill-rule="evenodd" clip-rule="evenodd" d="M13.8883 12.7912C14.541 12.4266 15.2793 12.2358 16.0293 12.2358C16.7792 12.2358 17.5177 12.4266 18.1704 12.7912C18.8212 13.1548 19.3653 13.6793 19.7454 14.3152L24.0041 21.2297C24.435 21.9277 24.6478 22.7347 24.6136 23.5517C24.5794 24.3688 24.2997 25.1556 23.8128 25.8165C23.3261 26.477 22.6544 26.9823 21.8824 27.2754C21.1109 27.5683 20.2694 27.638 19.4591 27.4772L16.3406 26.8619C16.1508 26.8266 15.9557 26.8267 15.7659 26.8621L12.6003 27.477L12.5984 27.4774C11.7885 27.638 10.9474 27.5682 10.1763 27.2754C9.40434 26.9823 8.7326 26.477 8.24594 25.8165C7.75897 25.1556 7.47934 24.3688 7.4451 23.5517C7.41086 22.7347 7.62362 21.9279 8.0544 21.2299L12.3132 14.3152C12.6933 13.6792 13.2376 13.1547 13.8883 12.7912ZM16.0293 14.0358C15.5839 14.0358 15.1481 14.1493 14.7661 14.3627C14.3843 14.576 14.0715 14.8804 13.8562 15.2421L13.8493 15.2538L9.58671 22.1744C9.34286 22.5695 9.22448 23.0221 9.24352 23.4763C9.26256 23.9306 9.41802 24.3728 9.69505 24.7488C9.97239 25.1252 10.3605 25.42 10.8152 25.5926C11.2702 25.7654 11.7689 25.807 12.2495 25.7115L12.2533 25.7108L15.4308 25.0935C15.8424 25.0161 16.2654 25.0161 16.677 25.0936L16.6848 25.095L19.8092 25.7115C20.2898 25.807 20.7885 25.7654 21.2435 25.5926C21.6982 25.42 22.0863 25.1252 22.3636 24.7488C22.6407 24.3728 22.7961 23.9306 22.8152 23.4763C22.8342 23.0221 22.7163 22.5702 22.4725 22.1752L18.2023 15.2422C17.9869 14.8804 17.6743 14.5759 17.2926 14.3627C16.9106 14.1493 16.4747 14.0358 16.0293 14.0358Z" fill="#1B1B21"/>
<path fill-rule="evenodd" clip-rule="evenodd" d="M6.59109 10.7722C4.58251 10.7722 3.3143 12.7716 3.3143 14.7344C3.3143 16.6971 4.58251 18.6965 6.59109 18.6965C8.59966 18.6965 9.86787 16.6971 9.86787 14.7344C9.86787 12.7716 8.59966 10.7722 6.59109 10.7722ZM5.1143 14.7344C5.1143 13.3148 5.97434 12.5722 6.59109 12.5722C7.20784 12.5722 8.06787 13.3148 8.06787 14.7344C8.06787 16.154 7.20784 16.8965 6.59109 16.8965C5.97434 16.8965 5.1143 16.154 5.1143 14.7344Z" fill="#1B1B21"/>
<path fill-rule="evenodd" clip-rule="evenodd" d="M16.5732 8.39028C16.5732 6.42753 17.8414 4.42812 19.8499 4.42812C21.8585 4.42812 23.1267 6.42753 23.1267 8.39028C23.1267 10.353 21.8585 12.3524 19.8499 12.3524C17.8414 12.3524 16.5732 10.353 16.5732 8.39028ZM19.8499 6.22812C19.2332 6.22812 18.3732 6.97067 18.3732 8.39028C18.3732 9.80989 19.2332 10.5524 19.8499 10.5524C20.4667 10.5524 21.3267 9.80989 21.3267 8.39028C21.3267 6.97067 20.4667 6.22812 19.8499 6.22812Z" fill="#1B1B21"/>
<path fill-rule="evenodd" clip-rule="evenodd" d="M25.4091 10.7722C23.4006 10.7722 22.1324 12.7716 22.1324 14.7344C22.1324 16.6971 23.4006 18.6965 25.4091 18.6965C27.4177 18.6965 28.6859 16.6971 28.6859 14.7344C28.6859 12.7716 27.4177 10.7722 25.4091 10.7722ZM23.9324 14.7344C23.9324 13.3148 24.7924 12.5722 25.4091 12.5722C26.0259 12.5722 26.8859 13.3148 26.8859 14.7344C26.8859 16.154 26.0259 16.8965 25.4091 16.8965C24.7924 16.8965 23.9324 16.154 23.9324 14.7344Z" fill="#1B1B21"/>
</svg>
