<svg width="32" height="32" viewBox="0 0 32 32" fill="none" xmlns="http://www.w3.org/2000/svg">
<path fill-rule="evenodd" clip-rule="evenodd" d="M29.7131 20.4561C30.1388 19.9335 30.4771 19.3446 30.7138 18.712C31.0071 17.9279 31.1381 17.0928 31.0989 16.2569L31.0978 16.232L31.0952 16.2071C30.9053 14.3579 29.4099 13.46 28.2162 13.0416C27.0619 12.6369 25.8942 12.5624 25.4903 12.5555C25.2117 12.5166 24.9416 12.433 24.6904 12.308L17.9836 7.92886L17.9738 7.92231L17.9311 7.89407C17.8952 7.87057 17.8447 7.83801 17.7829 7.79954C17.6603 7.7232 17.4884 7.62058 17.2949 7.51839C17.1045 7.41787 16.8751 7.30813 16.6404 7.22576C16.4291 7.15164 16.1087 7.06084 15.7746 7.09458L15.7695 7.09513C14.5759 7.22261 13.8121 7.96756 13.3801 8.58088C13.1612 8.89168 13.01 9.19152 12.9132 9.41284C12.8644 9.52451 12.8282 9.6189 12.8033 9.68833C12.7909 9.72311 12.7812 9.75184 12.7741 9.77357L12.7654 9.80089L12.7624 9.81044L12.7613 9.81416L12.7606 9.8165L12.7601 9.81809L12.759 9.82145C12.7563 9.82961 12.7505 9.84654 12.7411 9.87105C12.7224 9.92021 12.6899 9.99893 12.6401 10.0979C12.5402 10.2968 12.3742 10.5709 12.1173 10.8514C11.6191 11.3954 10.7379 12.0116 9.18654 12.1002L9.18416 12.1003C7.94507 12.1744 6.96469 11.6182 6.19661 10.8955C5.55434 10.2911 5.12796 9.64106 4.84374 9.20774C4.78026 9.11096 4.72387 9.025 4.67376 8.95276C4.21938 8.29789 3.28249 7.93066 2.4274 8.48837C1.68726 8.97111 1.31716 9.96927 1.2353 11.2416L1.23344 11.2704L1.3 20C1.29989 20.0539 1.30438 20.1079 1.31316 20.1615C1.42029 20.8148 1.7579 21.745 2.44418 22.5316C3.15669 23.3483 4.24203 24 5.74612 24H23.8859C23.9222 24 23.9585 23.998 23.9946 23.9941C24.7471 23.9122 25.9101 23.6508 27.0577 23.1273C28 22.5 28.5 22 29.5026 20.8C29.5323 20.7482 29.571 20.6861 29.614 20.617C29.6454 20.5666 29.679 20.5125 29.7131 20.4561ZM15.9241 8.88936C15.4612 8.95156 15.1153 9.24317 14.8518 9.61733C14.7195 9.80515 14.6242 9.99277 14.5623 10.1342C14.5318 10.204 14.5106 10.2598 14.4979 10.2953C14.4916 10.3129 14.4874 10.3253 14.4854 10.3316L14.4842 10.3352L14.4839 10.3362L14.4805 10.3476C14.4771 10.3584 14.4729 10.3718 14.4676 10.3877C14.4571 10.4195 14.4425 10.4612 14.4234 10.5114C14.3852 10.6118 14.3284 10.7471 14.2484 10.9062C14.089 11.2235 13.834 11.6421 13.4448 12.0671C12.6511 12.9338 11.34 13.7798 9.29041 13.8972C7.38756 14.0106 5.94616 13.1314 4.9631 12.2064C4.14237 11.4341 3.57284 10.5577 3.30699 10.1487L3.30277 10.1422C3.2847 10.1753 3.26525 10.2152 3.24516 10.2633C3.15554 10.4776 3.06859 10.8185 3.03344 11.3292L3.03374 12.6911C3.09369 12.7102 3.15649 12.731 3.22183 12.7536C3.75265 12.9372 4.4659 13.2435 5.18632 13.7361C6.57405 14.6851 7.9749 16.3252 8.14084 19H19C19.7973 18.9084 21.5078 18.3218 22.2794 16.8626C22.478 16.4871 22.6219 16.1391 22.7575 15.811C23.0419 15.123 23.2901 14.5228 23.9308 13.9403C23.8953 13.9231 23.8601 13.9054 23.8251 13.8873L23.7849 13.8665L22.8204 13.2367C22.3852 13.5281 22.0461 13.9441 21.8509 14.4327C21.6665 14.8943 21.1429 15.119 20.6813 14.9346C20.2197 14.7503 19.995 14.2266 20.1793 13.765C20.4174 13.169 20.781 12.6382 21.2391 12.2043L20.7172 11.8635C20.4859 11.9811 20.2745 12.1345 20.0912 12.3182C19.8411 12.5689 19.6492 12.87 19.5282 13.2006C19.3575 13.6674 18.8406 13.9074 18.3738 13.7366C17.907 13.5658 17.667 13.049 17.8378 12.5822C18.0488 12.0057 18.3829 11.4819 18.8169 11.0469C18.9034 10.9603 18.9934 10.8775 19.0867 10.7989L18.4633 10.3918C18.2514 10.5069 18.0568 10.6518 17.8858 10.8224C17.632 11.0756 17.4362 11.3796 17.3111 11.7135C17.1367 12.179 16.618 12.4149 16.1525 12.2406C15.687 12.0662 15.4511 11.5475 15.6255 11.082C15.8413 10.506 16.1786 9.98307 16.6145 9.54821C16.6885 9.47437 16.765 9.40336 16.8439 9.33529L16.8316 9.32761C16.7334 9.26643 16.5997 9.18682 16.4544 9.11013C16.306 9.03177 16.1634 8.96599 16.0445 8.92425C15.9783 8.90104 15.9396 8.89252 15.9241 8.88936ZM22.5789 19H28.5545C28.7476 18.7138 28.9066 18.4056 29.0279 18.0813C29.2328 17.5336 29.3259 16.9511 29.3021 16.3678C29.2121 15.6002 28.5985 15.083 27.6207 14.7402C26.8838 14.4819 26.1147 14.3931 25.6982 14.3658C25.0343 14.7875 24.352 15.5514 24 16.8626C23.7289 17.8727 23.1659 18.5715 22.5789 19ZM3.03509 19H6.33628C6.18025 17.0511 5.1767 15.9102 4.17027 15.2219C3.77705 14.953 3.38164 14.7534 3.03415 14.6078L3.03509 19ZM12.7606 9.8165C12.7606 9.8165 12.7823 9.82369 13.623 10.074L12.7606 9.8165ZM3.95598 21.2184C3.89429 21.1477 3.83727 21.0745 3.78473 21H26.8254C26.633 21.111 26.4318 21.2138 26.2244 21.3084C25.3174 21.7221 24.394 21.9321 23.8287 22H5.74612C4.88867 22 4.33405 21.6517 3.95598 21.2184Z" fill="#1B1B21"/>
</svg>
