<svg width="32" height="32" viewBox="0 0 32 32" fill="none" xmlns="http://www.w3.org/2000/svg">
<path fill-rule="evenodd" clip-rule="evenodd" d="M26.2132 3.33339C26.5445 3.30781 26.8776 3.35427 27.1893 3.46961C27.5013 3.58504 27.7842 3.76662 28.019 4.00164C28.254 4.23677 28.4352 4.51999 28.5504 4.8318C28.6648 5.14147 28.7115 5.4723 28.6869 5.80192L28.6353 6.59784L28.6335 6.62054C28.5434 7.61713 28.1056 8.55029 27.3965 9.25621L27.3951 9.25761L24.4835 12.1809L25.672 25.3448C25.6948 25.5975 25.6099 25.848 25.4383 26.0347L24.129 27.4595C23.9269 27.6794 23.629 27.7847 23.3337 27.7407C23.0384 27.6967 22.7841 27.5091 22.6549 27.2399L18.4601 18.499L14.3408 21.821L15.1293 27.241C15.1798 27.5882 15.0239 27.9332 14.7299 28.1247L14.0752 28.5511C13.662 28.8202 13.1092 28.7067 12.8354 28.2965L9.19407 22.84L3.7108 19.1748C3.30124 18.9011 3.18788 18.3489 3.45645 17.9359L3.88254 17.2808C4.07401 16.9863 4.41927 16.8302 4.76681 16.8808L10.1819 17.67L13.5008 13.5557L4.77675 9.35768C4.50848 9.22859 4.32141 8.9752 4.27705 8.68081C4.23268 8.38643 4.33676 8.08916 4.55507 7.88674L5.96829 6.57635C6.15564 6.40263 6.40801 6.31673 6.66244 6.34007L19.8435 7.5494L22.7608 4.62028C23.469 3.92017 24.3982 3.4877 25.3898 3.39688L25.4028 3.39569L26.2132 3.33339ZM10.7556 21.9372C10.7161 21.8235 10.6532 21.7163 10.567 21.6228L10.4423 21.4876C10.3263 21.3618 10.1821 21.2762 10.0279 21.2323L6.64978 18.9743L10.4303 19.5252C10.7451 19.5711 11.0608 19.4473 11.2606 19.1997L15.6147 13.8021C15.7872 13.5882 15.8526 13.3072 15.7921 13.0391C15.7317 12.771 15.5521 12.5452 15.3044 12.4261L6.74757 8.30849L6.89777 8.16922L20.1003 9.38053C20.3672 9.40502 20.6311 9.30929 20.8202 9.11941L24.0263 5.90037L24.0286 5.89814C24.4386 5.49387 24.9753 5.24378 25.548 5.18994L26.3514 5.12808C26.4237 5.12249 26.4967 5.13261 26.5647 5.15775C26.6325 5.18285 26.6942 5.22239 26.7457 5.27391C26.7971 5.32531 26.8367 5.38729 26.862 5.45556C26.8873 5.52407 26.8974 5.59704 26.8918 5.66943L26.8398 6.46894C26.7857 7.04117 26.533 7.57631 26.1257 7.98139L26.1227 7.98438L22.9117 11.2083C22.7238 11.397 22.6291 11.6592 22.653 11.9244L23.8435 25.11L23.7028 25.2631L19.5911 16.6956C19.4722 16.4477 19.2464 16.2678 18.9782 16.2072C18.71 16.1465 18.4288 16.2118 18.2148 16.3845L12.8113 20.742C12.5636 20.9417 12.4398 21.2573 12.4856 21.5722L13.0359 25.3542L10.7556 21.9372Z" fill="#1B1B21"/>
</svg>
