<svg width="32" height="32" viewBox="0 0 32 32" fill="none" xmlns="http://www.w3.org/2000/svg">
<path fill-rule="evenodd" clip-rule="evenodd" d="M5.93856 15.473C5.76171 15.0085 5.99641 14.4925 6.46277 14.3205L15.1321 11.1238C15.5984 10.9518 16.1198 11.189 16.2967 11.6535L18.1076 16.4102C18.2845 16.8747 18.0498 17.3907 17.5834 17.5627L8.91412 20.7595C8.44776 20.9315 7.92634 20.6943 7.74949 20.2298L5.93856 15.473ZM7.94762 15.6914L9.11811 18.7659L16.0986 16.1919L14.9281 13.1173L7.94762 15.6914Z" fill="#1B1B21"/>
<path fill-rule="evenodd" clip-rule="evenodd" d="M20.9622 6.96405L20.9622 5.2439L20.9622 5.24052C20.959 4.39173 20.614 3.58175 20.0076 2.98713C19.4016 2.39296 18.5841 2.06187 17.7348 2.06187H14.2567C13.4077 2.06187 12.5905 2.39368 11.9858 2.98881C11.3807 3.58439 11.038 4.39527 11.038 5.2439V6.96405H4.52648C2.55372 6.96405 0.929871 8.54171 0.929871 10.518V23.5172C0.929871 25.4934 2.55372 27.0711 4.52648 27.0711H7.3277V27.8953C7.3277 28.3923 7.73064 28.7953 8.2277 28.7953C8.72475 28.7953 9.1277 28.3923 9.1277 27.8953V27.0711H22.8723V27.8953C22.8723 28.3923 23.2753 28.7953 23.7723 28.7953C24.2694 28.7953 24.6723 28.3923 24.6723 27.8953V27.0711H27.4735C29.4462 27.0711 31.0701 25.4934 31.0701 23.5172V10.518C31.0701 8.54171 29.4462 6.96405 27.4735 6.96405H20.9622ZM14.2567 3.86187C13.8758 3.86187 13.5134 4.01091 13.2484 4.27171C12.9839 4.53206 12.838 4.88206 12.838 5.2439V6.96405H19.1622V5.24583C19.1604 4.88311 19.013 4.53284 18.7474 4.27236C18.4809 4.01108 18.1171 3.86187 17.7348 3.86187H14.2567ZM2.72987 22.0253V23.5172C2.72987 24.4723 3.52065 25.2711 4.52648 25.2711H5.44866C5.39454 24.4206 5.0327 23.6115 4.42027 22.9938C3.9538 22.5233 3.36816 22.1906 2.72987 22.0253ZM7.25107 25.2711C7.19526 23.9424 6.64305 22.6791 5.69849 21.7265C4.89127 20.9123 3.8503 20.378 2.72987 20.1859V10.518C2.72987 9.5628 3.52065 8.76405 4.52648 8.76405H23.3616V11.2838L22.1883 11.879C21.886 12.0324 21.6955 12.3427 21.6955 12.6817V18.1839C21.6955 18.681 22.0984 19.0839 22.5955 19.0839H25.9276C26.4247 19.0839 26.8276 18.681 26.8276 18.1839V12.6817C26.8276 12.3427 26.6371 12.0324 26.3348 11.879L25.1616 11.2839V8.76405H27.4735C28.4793 8.76405 29.2701 9.56279 29.2701 10.518V20.1419C28.0327 20.2825 26.8732 20.8378 25.9921 21.7265C25.0476 22.6791 24.4953 23.9424 24.4395 25.2711H7.25107ZM26.2419 25.2711H27.4735C28.4793 25.2711 29.2701 24.4723 29.2701 23.5172V21.9592C28.5124 22.0879 27.8113 22.4482 27.2703 22.9938C26.6579 23.6115 26.296 24.4206 26.2419 25.2711ZM23.4955 13.2343V17.2839H25.0276V13.2343L24.2616 12.8456L23.4955 13.2343Z" fill="#1B1B21"/>
</svg>
