<svg width="32" height="32" viewBox="0 0 32 32" fill="none" xmlns="http://www.w3.org/2000/svg">
<path d="M13.5404 19.083C14.0291 19.1814 14.347 19.665 14.2505 20.1631L13.3724 24.6933C13.2759 25.1914 12.8014 25.5154 12.3126 25.417C11.8239 25.3186 11.506 24.835 11.6025 24.3369L12.4806 19.8068C12.5772 19.3086 13.0516 18.9846 13.5404 19.083Z" fill="#1B1B21"/>
<path d="M19.5191 19.8068C19.4226 19.3086 18.9481 18.9846 18.4594 19.083C17.9706 19.1814 17.6527 19.665 17.7492 20.1631L18.6273 24.6933C18.7239 25.1914 19.1983 25.5154 19.6871 25.417C20.1758 25.3186 20.4937 24.835 20.3972 24.3369L19.5191 19.8068Z" fill="#1B1B21"/>
<path fill-rule="evenodd" clip-rule="evenodd" d="M20.8295 1C21.3277 1 21.7315 1.41162 21.7315 1.91937V5.63335C21.7315 5.76892 21.7028 5.89763 21.6511 6.01349C22.1263 6.22668 22.5908 6.46865 23.0424 6.73875C23.3896 6.94645 23.5597 7.36352 23.4593 7.7609L21.7755 14.4257L26.9388 27.9695C27.0267 28.2001 27.0197 28.4572 26.9193 28.6825C26.8189 28.9079 26.6336 29.0824 26.4053 29.1668C22.9969 30.4258 19.4013 31.0439 15.7855 30.9918C12.2966 31.0802 8.82562 30.4505 5.57066 29.1391C5.10928 28.9532 4.88179 28.4224 5.06148 27.9511L10.2221 14.4143L8.54114 7.7609C8.45575 7.42291 8.56549 7.06478 8.82444 6.83641L9.41468 7.53164C8.82444 6.83641 8.82406 6.83675 8.82444 6.83641L8.826 6.83504L8.82775 6.83351L8.8318 6.82998L8.84218 6.82106C8.85011 6.81431 8.86006 6.80597 8.87203 6.79613C8.89599 6.77646 8.92808 6.75083 8.96842 6.72013C9.0491 6.65873 9.16278 6.57701 9.31037 6.48202C9.55341 6.32561 9.88818 6.13337 10.3185 5.93679C10.2859 5.84179 10.2682 5.73968 10.2682 5.63335V1.91937C10.2682 1.41162 10.6721 1 11.1703 1C11.6684 1 12.0723 1.41162 12.0723 1.91937V5.31899C13.0643 5.05903 14.2902 4.87142 15.7626 4.86989C17.175 4.81384 18.5796 4.98807 19.9275 5.37969V1.91937C19.9275 1.41162 20.3313 1 20.8295 1ZM15.817 6.70788C17.7995 6.62642 19.7668 7.07002 21.5376 7.99365L20.1304 13.5634H11.87L10.4468 7.93022C10.6544 7.80805 10.9356 7.66063 11.2934 7.51113C12.2305 7.11965 13.706 6.70862 15.7807 6.70862C15.7928 6.70862 15.8049 6.70837 15.817 6.70788ZM11.781 15.4021L7.07384 27.7494C9.86325 28.754 12.804 29.2302 15.7575 29.1532C15.7697 29.1529 15.7818 29.1528 15.7939 29.153C18.8895 29.1995 21.9702 28.7232 24.9174 27.7443L20.2123 15.4021H11.781Z" fill="#1B1B21"/>
</svg>
